<?xml version="1.0" encoding="utf-8"?>
<!-- Generator: Adobe Illustrator 23.0.0, SVG Export Plug-In . SVG Version: 6.00 Build 0)  -->
<svg version="1.1" id="Camada_1" xmlns="http://www.w3.org/2000/svg" xmlns:xlink="http://www.w3.org/1999/xlink" x="0px" y="0px"
	 viewBox="0 0 1920 1080" style="enable-background:new 0 0 1920 1080;" xml:space="preserve">
<style type="text/css">
	.st0{opacity:0.4;clip-path:url(#SVGID_2_);}
	.st1{fill:url(#SVGID_3_);}
	.st2{fill:url(#SVGID_4_);}
	.st3{fill:url(#SVGID_5_);}
	.st4{fill:url(#SVGID_6_);}
	.st5{fill:url(#SVGID_7_);}
	.st6{fill:url(#SVGID_8_);}
	.st7{fill:url(#SVGID_9_);}
	.st8{fill:url(#SVGID_10_);}
	.st9{fill:url(#SVGID_11_);}
	.st10{fill:url(#SVGID_12_);}
	.st11{fill:url(#SVGID_13_);}
	.st12{fill:url(#SVGID_14_);}
	.st13{fill:url(#SVGID_15_);}
	.st14{fill:url(#SVGID_16_);}
	.st15{fill:url(#SVGID_17_);}
	.st16{fill:url(#SVGID_18_);}
	.st17{fill:url(#SVGID_19_);}
	.st18{fill:url(#SVGID_20_);}
	.st19{fill:url(#SVGID_21_);}
	.st20{fill:url(#SVGID_22_);}
	.st21{fill:url(#SVGID_23_);}
	.st22{fill:url(#SVGID_24_);}
	.st23{fill:url(#SVGID_25_);}
	.st24{fill:url(#SVGID_26_);}
	.st25{fill:url(#SVGID_27_);}
	.st26{fill:url(#SVGID_28_);}
	.st27{fill:url(#SVGID_29_);}
	.st28{clip-path:url(#SVGID_2_);}
	.st29{fill:#00C9F7;}
	.st30{opacity:0.35;}
	.st31{fill:#6C00F7;}
	.st32{fill:#97F700;}
	.st33{fill:#F74C00;}
</style>
<g>
	<defs>
		<rect id="SVGID_1_" x="1" width="1919" height="1080"/>
	</defs>
	<clipPath id="SVGID_2_">
		<use xlink:href="#SVGID_1_"  style="overflow:visible;"/>
	</clipPath>
	<g class="st0">
		<g>
			<g>
				<linearGradient id="SVGID_3_" gradientUnits="userSpaceOnUse" x1="-67.7398" y1="464.5192" x2="1851.7903" y2="464.5192">
					<stop  offset="0" style="stop-color:#A1D1DC"/>
					<stop  offset="0.5" style="stop-color:#6CBBCB"/>
					<stop  offset="1" style="stop-color:#00A6BB"/>
				</linearGradient>
				<path class="st1" d="M-66.3,1024.2c13.2-66.6,96.8-91.7,153.4-106.3c35.2-9.1,71-15.6,106.8-21.9c15.6-2.7,31.1-5.4,46.7-8.4
					c26.3-5,52.5-7.3,79.2-9.3c48.8-3.6,95.6-11.4,135.3-42c16-12.4,30.1-27.1,42.2-43.4c13.5-18.1,21.9-37.7,32.5-57.4
					c12-22.5,44.8-28.1,67.4-32.4c29.3-5.6,59.3-8.1,88.1-16c17.4-4.8,40.2-12.9,43.4-33.4c1.4-9.3,1-19,1.7-28.4
					c1-13.8,2.6-27.6,6.1-41c7.2-28,23.5-49.8,47.2-66.1c19.9-13.7,42.5-22.7,63.1-35.1c16.8-10.1,32.5-21.9,48.1-33.7
					c12.2-9.3,24.6-18.4,38.5-24.9c19.2-9,40.2-12.5,61.2-13.5c23.7-1.1,47.1-0.6,70.6-4.3c21.4-3.4,42.3-9.3,62.8-16.3
					c42.9-14.7,84.5-31.4,129.4-39.7c97.9-18.2,183.1-69.3,255.7-136.2c49.4-45.5,101.8-87.7,152.9-131.4
					c56-47.9,113.3-95.9,163-150.5c8-8.8,15.7-17.8,22.8-27.3c0.6-0.8-0.7-1.5-1.3-0.8c-17.8,24.2-39.6,45.6-61.2,66.3
					c-27.6,26.6-56.3,52.1-85.2,77.4c-55.6,48.5-112.7,95.2-168.2,143.8c-30.5,26.7-59.8,54.3-93.1,77.6
					c-41.6,29.1-87.2,53-135.9,67.8c-24.9,7.6-50.5,11.1-75.8,17.3c-21.6,5.3-42.8,12.3-63.7,19.8c-41.4,15-82,29.9-126.3,33.5
					c-24,2-48,0.1-71.8,4.1c-16.6,2.8-32.5,8.2-47.1,16.6c-13.6,7.9-25.8,17.8-38.4,27.2c-17.1,12.9-34.8,24.8-53.7,34.9
					c-20.5,10.9-41.6,20.3-59.5,35.4c-18,15.3-29.6,34.8-35.5,57.6c-5.8,22.6-5,45.5-7.7,68.4c-1.4,11.7-9.6,19.5-19.5,24.8
					c-24.6,13.1-55,15.4-82.1,19.6c-26.3,4.1-55.7,7.3-79.2,20.7c-9.4,5.4-15.8,12.2-20.2,22.1c-9.3,21.1-21,41.2-35.5,59.2
					c-31.5,39.3-73.5,64.4-123.2,72.8c-28.4,4.8-57.3,5.3-85.9,8.2c-19.4,1.9-38.3,5.8-57.4,9.3c-34.7,6.3-69.6,11.9-104.1,19.4
					C85.6,916,50.9,925,18.3,939.1c-26.5,11.4-53.4,26.6-70.7,50.2c-7.6,10.3-12.8,22-15.2,34.5
					C-67.9,1024.7-66.5,1025.1-66.3,1024.2L-66.3,1024.2z"/>
			</g>
		</g>
		<g>
			<g>
				<linearGradient id="SVGID_4_" gradientUnits="userSpaceOnUse" x1="-62.3225" y1="470.6137" x2="1857.8291" y2="470.6137">
					<stop  offset="0" style="stop-color:#A1D1DC"/>
					<stop  offset="0.5" style="stop-color:#6CBBCB"/>
					<stop  offset="1" style="stop-color:#00A6BB"/>
				</linearGradient>
				<path class="st2" d="M-60.9,1029.4c7-30.3,30.4-52,56.3-67.3c30.3-18,64.4-29.1,98.3-38.1c35-9.3,70.5-16.2,106.1-22.8
					c15.6-2.9,31.2-5.7,46.8-8.8c25.9-5.1,51.8-8.1,78.1-10.2c49.3-4,97.1-10.9,138.1-40.7c17.7-12.9,33.3-28.5,46.7-45.8
					c13-16.7,21.6-35,32.3-53c12.9-21.7,45.1-27.1,67.8-31.3c29.1-5.5,58.9-7.9,87.7-15.4c17.1-4.4,40.6-11.8,45.3-31.4
					c2-8.1,1.8-17.1,2.7-25.4c1.4-13.3,3.1-26.7,6.6-39.7c7-26.4,21.6-47.4,43.6-63.5c20.4-14.9,44-24.1,65.6-36.8
					c17.5-10.3,33.6-22.4,49.7-34.7c12.6-9.7,25.3-19.2,39.7-26c19-9,39.9-12.8,60.8-14c23.6-1.4,46.7-1.8,70-6.5
					c20.3-4.1,40.1-10.4,59.5-17.7c42.1-15.8,82.9-32.8,127.1-42c96.1-20,179.6-73.7,251.4-138.9c49.7-45.1,102.3-87.1,153.4-130.5
					c55.5-47.2,112.2-94.6,161.6-148.5c8.2-8.9,16.1-18.2,23.3-27.9c0.6-0.8-0.7-1.5-1.3-0.8c-17.7,24-39.3,45.3-60.8,65.9
					c-27.3,26.2-55.6,51.4-84.2,76.2c-55.9,48.5-113.4,95.2-169.4,143.7c-30.4,26.3-59.6,53.6-92.5,76.9
					c-40.9,29-85.4,53.4-133,69.4c-23.6,7.9-47.9,12.2-72,18.4c-22.4,5.7-44.1,13.4-65.6,21.7c-40.6,15.8-80.5,32-124.2,36.8
					c-23.1,2.5-46.4,1.2-69.3,5.4c-16.3,3-32,8.6-46.3,17c-14,8.2-26.6,18.6-39.5,28.4c-17.4,13.2-35.6,25.3-55,35.4
					c-21,11-42.5,20.7-60.4,36.6c-16.9,15-27.8,34-33.5,55.8c-2.6,10.1-4.3,20.4-5.6,30.8c-1.4,11.2-1,23.4-3.7,34.3
					c-2.6,10.6-11.3,17.4-20.6,22c-24.9,12.4-54.9,14.7-82,18.8c-26.5,4-55.9,7.1-79.8,20.3c-9.4,5.2-16,11.8-20.7,21.3
					c-10.3,20.8-22.8,40.4-38,58c-32.9,38.2-75.5,62.2-125.3,70.4c-28.7,4.7-57.8,5.5-86.7,8.8c-19.3,2.2-38.3,6.3-57.3,9.9
					c-35,6.6-70,12.7-104.8,20.6c-34.3,7.8-68.6,17-101,31c-26.3,11.4-53,26.3-70.9,49.3c-7.9,10.1-13.5,21.6-16.4,34.1
					C-62.5,1029.9-61.1,1030.3-60.9,1029.4L-60.9,1029.4z"/>
			</g>
		</g>
		<g>
			<g>
				<linearGradient id="SVGID_5_" gradientUnits="userSpaceOnUse" x1="-56.9061" y1="476.7074" x2="1863.8679" y2="476.7074">
					<stop  offset="0" style="stop-color:#A1D1DC"/>
					<stop  offset="0.5" style="stop-color:#6CBBCB"/>
					<stop  offset="1" style="stop-color:#00A6BB"/>
				</linearGradient>
				<path class="st3" d="M-55.4,1034.6c8-29.6,31.6-50.7,57.2-65.8c30.1-17.8,63.9-29.1,97.5-38.3c35.5-9.8,71.5-17.1,107.6-24.2
					c40.9-8,81.2-16.4,122.8-20.1c49.3-4.4,97.7-10.4,139.7-38.6c36.5-24.5,61.3-58.2,83.5-95.4c13-21.7,42.8-27.3,65.7-31.7
					c29.7-5.7,60-8.1,89.4-15c17.1-4,41.4-10.4,48.5-28.8c2.8-7.4,2.9-16.2,4-24c1.7-12.3,3.6-24.7,6.8-36.7
					c7.1-26.8,21.7-48.3,44.1-64.6c19.4-14.1,41.7-23,62.4-34.8c17.3-9.9,33.3-21.4,49-33.6c13.5-10.4,26.8-21,42-28.8
					c17.9-9.2,37.5-13.8,57.4-15.8c23.5-2.3,46.7-2.7,69.8-7.9c20.4-4.5,40.1-11.4,59.4-19.3c40.9-16.7,80.5-34.5,123.8-44.7
					c95-22.2,177.8-76.9,249.6-141.4c50.3-45.1,103.4-87.2,155-130.8c55.5-46.9,112.3-94,161.4-147.8c7.9-8.7,15.6-17.6,22.6-27.1
					c0.6-0.8-0.7-1.5-1.3-0.8c-17.7,23.9-39.1,45-60.5,65.5C1775,9.9,1747,34.7,1718.8,59c-56,48.3-113.6,94.8-169.8,142.9
					c-30.8,26.3-60.4,53.6-93.3,77.3c-41.1,29.5-85.6,54.8-133.3,71.9c-23.1,8.3-47,13-70.5,19.7c-21.8,6.2-43,14.3-63.9,23.1
					c-39.1,16.5-77.4,33.4-119.8,39.2c-22.9,3.1-46.1,2.3-68.8,7.2c-16.4,3.6-31.9,9.8-46.2,18.7c-14.3,8.9-27.2,19.8-40.6,29.9
					c-17.7,13.3-36.2,25.2-56,35.1c-20.4,10.3-41.1,20.4-58.2,35.9c-16.5,15-26.9,34.2-32.5,55.6c-2.9,11-4.7,22.3-6.3,33.6
					c-1.2,8.7-1.2,18.8-4.5,27.1c-4.2,10.7-15.1,16.9-25.2,21c-25.8,10.4-54.8,12.8-82,16.9c-26.2,3.9-55.5,7.1-78.9,20.7
					c-9.4,5.5-14.8,12.3-20,21.7c-11.4,20.4-25.1,39.5-41.2,56.5c-35.6,37.7-80.1,59.3-131.2,66.7c-27.7,4-55.8,5.1-83.5,8.8
					c-19,2.5-37.7,6.8-56.5,10.5c-34.9,6.9-69.8,13.3-104.4,21.5c-34,8.1-68,17.5-100.1,31.5c-27.1,11.8-54.8,27.2-73.2,51
					c-7.2,9.3-12.5,19.8-15.5,31.2C-57.1,1035.1-55.7,1035.5-55.4,1034.6L-55.4,1034.6z"/>
			</g>
		</g>
		<g>
			<g>
				<linearGradient id="SVGID_6_" gradientUnits="userSpaceOnUse" x1="-51.4907" y1="482.8002" x2="1869.9067" y2="482.8002">
					<stop  offset="0" style="stop-color:#A1D1DC"/>
					<stop  offset="0.5" style="stop-color:#6CBBCB"/>
					<stop  offset="1" style="stop-color:#00A6BB"/>
				</linearGradient>
				<path class="st4" d="M-50,1039.8c8.9-28.9,32.7-49.4,58-64.3c30.7-18,64.9-29.6,99-39.2c34.5-9.8,69.5-17.3,104.6-24.4
					c40.9-8.4,81.3-17.5,122.9-21.6c49.3-4.9,98.1-10,141.2-36.7c35.9-22.3,65-54.5,87.1-90.4c14.2-23.2,41.9-29.3,67.1-34.1
					c29.7-5.7,60-8,89.6-14.5c17.7-3.9,43.4-9.8,51.4-28.5c2.7-6.3,3.2-13.6,4.5-20.3c2.2-12.2,4.4-24.5,7.9-36.5
					c7.4-25.5,21.4-46.2,42.8-62c20-14.7,43.1-23.8,64.5-36c16.7-9.5,32.3-20.7,47.5-32.5c13.2-10.3,26.3-20.9,41-29.1
					c18.6-10.3,39.2-15.7,60.3-18.1c22.4-2.6,44.3-3.8,66.2-9.4c18.6-4.8,36.6-11.6,54.2-19.3c41.6-18.2,81.6-37.4,125.8-49
					c92.7-24.4,173.8-80.2,244.7-143c50.9-45.1,104.5-87.2,156.6-130.9c55.1-46.2,111.3-92.6,159.9-145.7c8.1-8.9,16-18,23.1-27.7
					c0.6-0.8-0.7-1.5-1.3-0.8c-17.6,23.7-38.8,44.7-60.1,65c-27.2,26-55.5,50.9-84.1,75.4c-55.7,47.7-113,93.6-169,141
					c-30.6,25.9-60.2,52.9-92.7,76.5c-40.8,29.7-84.8,55.7-132,73.9c-22.9,8.9-46.5,14.3-69.9,21.5c-20.6,6.4-40.5,14.5-60.1,23.4
					c-38.7,17.5-76.6,36.1-119,43.1c-22.7,3.8-45.9,3.4-68.4,9c-15.8,4-30.7,10.5-44.4,19.3c-14.6,9.4-27.8,20.7-41.6,31.1
					c-17.5,13.1-36,24.7-55.5,34.5c-20.6,10.3-41.5,20.6-58.7,36.4c-15.6,14.4-25.5,32.7-31.4,53c-3.2,11-5.3,22.2-7.3,33.4
					c-1.5,8.1-1.9,17.2-5.6,24.6c-5.1,10.2-16.4,15.9-26.6,19.7c-26.5,9.9-55.8,12.3-83.6,16.3c-25.9,3.8-54.6,7-77.7,20.2
					c-11.2,6.4-16.4,14.9-23.2,25.5c-12.3,19-26.5,36.8-42.8,52.5c-37.3,35.9-82.3,55.6-133.3,62.7c-26.7,3.7-53.7,5.1-80.4,8.9
					c-19.9,2.8-39.5,7.5-59.2,11.6c-33.9,7-68,13.6-101.6,21.8c-34.5,8.4-68.9,18.3-101.6,32.4c-27,11.7-54.5,26.9-73.4,50.1
					c-7.5,9.2-13.2,19.5-16.7,30.8C-51.7,1040.3-50.3,1040.7-50,1039.8L-50,1039.8z"/>
			</g>
		</g>
		<g>
			<g>
				<linearGradient id="SVGID_7_" gradientUnits="userSpaceOnUse" x1="-46.076" y1="488.892" x2="1875.9454" y2="488.892">
					<stop  offset="0" style="stop-color:#A1D1DC"/>
					<stop  offset="0.5" style="stop-color:#6CBBCB"/>
					<stop  offset="1" style="stop-color:#00A6BB"/>
				</linearGradient>
				<path class="st5" d="M-44.6,1045c9.8-28.2,33.8-48.1,58.8-62.7c30.5-17.8,64.3-29.6,98.1-39.4c34.9-10.2,70.5-18.2,106.1-25.8
					c39.4-8.4,78.6-17.9,118.7-22.4c48.4-5.4,96.9-9.2,140.5-33c37.3-20.4,68.3-50.9,92.8-85.4c8.3-11.7,15.1-20.3,28.4-26.5
					c12.5-5.8,26.1-9,39.5-11.6c29.6-5.8,59.7-8.1,89.3-13.9c18.6-3.6,44.9-8.5,56-26c3.2-5,4.2-10.9,5.5-16.6
					c2.6-11.1,4.9-22.3,8-33.2c7-24.8,19.1-46.1,39.4-62.3c20-15.9,43.5-25.4,65.7-37.6c17.8-9.8,34.3-21.3,50.3-33.7
					c13.4-10.4,26.5-21.4,41.2-30c16.5-9.7,34.7-15.7,53.6-18.9c22.9-3.9,45.6-5,68.1-11.3c18.5-5.1,36.2-12.4,53.5-20.6
					c39.8-18.8,78-39.2,120.5-51.5c93-26.9,173.9-83.2,246-146.3c50.9-44.5,104.2-86.2,156.2-129.4c55.3-46,111.6-92.3,160.4-145.4
					c8.3-9.1,16.4-18.4,23.7-28.3c0.6-0.8-0.7-1.5-1.3-0.8c-17.7,23.8-39.1,45-60.6,65.4c-27.3,26-55.6,50.8-84.3,75.1
					c-55.6,47.3-112.9,92.8-168.8,139.7c-31.3,26.3-61.7,53.5-94.8,77.7c-40.7,29.7-84.4,56-131.2,75c-22.3,9.1-45.5,14.9-68.2,22.7
					c-19.7,6.8-38.7,15.3-57.4,24.4c-37.1,18.1-73.4,37.4-114.4,45.4c-22.3,4.4-45.2,4.6-67.2,10.8c-15.7,4.4-30.4,11.4-43.9,20.5
					c-13.9,9.4-26.7,20.3-40.1,30.4c-18.4,13.8-37.8,25.8-58.5,35.9c-20.1,9.9-40.4,20.3-57.1,35.7c-16.3,15.1-26.1,34.2-32.2,55.3
					c-3,10.5-5.3,21.1-7.7,31.7c-1.7,7.3-2.7,15-7.3,21.1c-6.8,9-18.1,13.8-28.5,17.2c-27.7,9.1-57.5,11.4-86.3,15.5
					c-25.4,3.7-54.1,7-76.3,20.8c-11.1,6.9-16.7,17.2-24.2,27.5c-13.6,18.4-29.1,35.6-46.5,50.6c-17.7,15.3-37.5,28.3-59,37.7
					c-25.6,11.3-53.2,16.6-80.9,20c-24.9,3-49.9,4.9-74.6,8.8c-18.6,3-37,7.6-55.4,11.5c-34.5,7.4-69.1,14.5-103.3,23.2
					c-34.2,8.7-68.2,18.7-100.6,32.8c-26.9,11.7-54.2,26.7-73.6,49.2c-7.8,9-13.9,19.2-17.8,30.4
					C-46.3,1045.5-44.9,1045.9-44.6,1045L-44.6,1045z"/>
			</g>
		</g>
		<g>
			<g>
				<linearGradient id="SVGID_8_" gradientUnits="userSpaceOnUse" x1="-40.662" y1="494.9828" x2="1881.9843" y2="494.9828">
					<stop  offset="0" style="stop-color:#A1D1DC"/>
					<stop  offset="0.5" style="stop-color:#6CBBCB"/>
					<stop  offset="1" style="stop-color:#00A6BB"/>
				</linearGradient>
				<path class="st6" d="M-39.2,1050.2c10.9-28,35.6-47.4,61-61.9c30.3-17.3,63.6-29.1,96.9-39.2c35.2-10.6,71.1-19,107-27
					c38.6-8.6,77-18.4,116.3-23.2c48.6-6,97.6-9.4,142.1-31.9c37.8-19.2,69.9-48.3,96.1-81.3c8.8-11.1,15.8-20.6,28.9-26.8
					c12.5-5.9,26.2-9.2,39.7-11.8c29.4-5.8,59.3-8,88.7-13.3c19.5-3.5,46.4-7.7,59.4-24.6c8.9-11.6,10.3-29.4,14.4-43.1
					c7.2-24,17.9-45.4,37.4-61.9c19.1-16.2,42-26,64-37.4c18.7-9.7,36.1-21.3,52.7-34.2c29.2-22.6,55.8-44,92.9-52.1
					c22.6-4.9,45.5-6.3,67.8-13.1c17.6-5.4,34.6-12.8,51-21c39.5-19.9,77.1-41.9,119.6-55.4c91.9-29.3,171.9-86.2,244.2-148.7
					c51.5-44.5,105.3-86.2,157.8-129.6c55.3-45.7,111.7-91.7,160.2-144.7c8.1-8.8,15.8-17.9,23-27.4c0.6-0.8-0.7-1.5-1.3-0.8
					c-17.9,24-39.4,45.2-61,65.8c-27,25.6-55,50-83.4,74c-56.2,47.5-114,92.9-170.5,139.9c-31.5,26.2-62.2,53.3-95.3,77.6
					c-40.2,29.4-83,55.9-128.8,75.7c-22.5,9.7-46.1,16.2-69,25c-19,7.3-37.4,16.2-55.4,25.7c-37,19.5-73.2,39.9-114.7,48.4
					c-22,4.5-44.3,5.6-65.6,13.2c-14.7,5.2-28.2,12.9-40.8,22c-14.3,10.3-27.6,21.8-41.8,32.2c-19.1,13.9-39.5,24.9-60.7,35.4
					c-19.7,9.8-39.5,20.9-54.9,37c-14.2,14.8-22.4,33.3-28.3,52.6c-4.5,14.6-5.8,35.2-16.9,46.6c-8.1,8.3-19.9,12.6-30.8,15.7
					c-28.4,8.3-58.5,10.4-87.7,14.6c-24.8,3.6-53,7-74.6,20.8c-12.2,7.8-19.4,20.9-28.6,31.7c-14.8,17.5-31.3,33.7-49.6,47.5
					c-40.9,31.1-87.3,45.2-137.8,51.4c-25,3.1-50.1,5.2-75,9.6c-18.4,3.3-36.5,7.9-54.7,12c-34.5,7.7-69.1,15.2-103.3,24.2
					c-34,9-67.9,19.3-100.1,33.5c-27,11.9-54.5,26.9-74.3,49.4c-7.5,8.5-13.5,18-17.6,28.6C-41,1050.7-39.5,1051.1-39.2,1050.2
					L-39.2,1050.2z"/>
			</g>
		</g>
		<g>
			<g>
				<linearGradient id="SVGID_9_" gradientUnits="userSpaceOnUse" x1="-35.1785" y1="501.1131" x2="1888.0231" y2="501.1131">
					<stop  offset="0" style="stop-color:#A1D1DC"/>
					<stop  offset="0.5" style="stop-color:#6CBBCB"/>
					<stop  offset="1" style="stop-color:#00A6BB"/>
				</linearGradient>
				<path class="st7" d="M-33.8,1055.5c11.5-26.6,35.4-45.3,59.9-59.5c30.6-17.7,64.3-29.9,97.9-40.4c34.6-10.7,69.8-19.4,105-27.6
					c36.7-8.6,73.5-18.5,110.9-23.9c49.2-7.2,99.3-9.2,145.4-29.7c39.5-17.5,73.8-45.5,102.5-77.5c9.6-10.7,17.1-21.8,30.2-28.5
					c11.9-6.1,25.2-9.5,38.3-12.2c29.4-6.1,59.4-8.3,89-13c20.9-3.3,48.2-6.9,64-22.7c9.2-9.2,11.6-23.9,15.5-35.7
					c7.9-23.9,17.6-46.2,36.8-63.3c18.1-16.1,40.1-26.4,61.7-37c19.5-9.6,37.7-21.2,55-34.3c29.1-22.1,55.1-45.5,91.3-55.2
					c21.8-5.9,44.4-7.6,66-14.7c18.2-5.9,35.5-14.1,52.3-23.2c38.4-20.8,74.7-43.7,116.2-58.2c90.8-31.8,169.9-89.2,242.4-151.1
					c51.8-44.2,105.7-85.8,158.4-128.9c55.2-45.2,111.3-90.9,159.7-143.5c8.3-9,16.2-18.3,23.5-28.1c0.6-0.8-0.7-1.5-1.3-0.8
					c-17.8,23.8-39.1,44.9-60.6,65.3c-26.9,25.5-55,49.8-83.4,73.7c-55.6,46.7-112.9,91.5-169,137.5c-32.2,26.4-63.5,53.9-97,78.7
					c-40,29.6-82.4,56.6-127.7,77.5c-22,10.2-45.1,17.3-67.5,26.6c-19,7.9-37.2,17.4-55.1,27.6c-35.4,20.2-70.1,41.1-110.1,50.8
					c-21.9,5.3-44.2,6.9-65.3,15.3c-14.8,5.9-28.3,14.2-40.9,23.8c-13.9,10.5-27.2,21.9-41.3,32.1c-19.4,14-40.2,24.6-61.5,35.3
					c-19.3,9.7-38.6,20.7-53.6,36.4c-13.9,14.6-22,32.8-28.4,51.6c-4.9,14.5-7.4,33.1-19.9,43.3c-9.1,7.4-20.9,11.2-32,14.1
					c-28.6,7.5-58.5,9.6-87.7,13.7c-24.9,3.5-53.4,6.9-74.9,21.1c-12,8-20.1,21.1-29.9,31.5c-15.2,16.3-31.9,31.3-50.1,44.2
					c-42.4,30.2-90,43.5-141.2,49.8c-24.6,3-49.2,5.6-73.6,10.2c-18,3.4-35.8,8.1-53.7,12.3c-34.3,7.9-68.6,15.7-102.5,24.9
					c-33.7,9.2-67.3,19.5-99.4,33.5c-27.2,11.8-54.6,26.4-75.4,48.1c-8.3,8.6-15.2,18.4-19.9,29.4
					C-35.5,1055.7-34.2,1056.4-33.8,1055.5L-33.8,1055.5z"/>
			</g>
		</g>
		<g>
			<g>
				<linearGradient id="SVGID_10_" gradientUnits="userSpaceOnUse" x1="-29.7678" y1="507.2054" x2="1894.0618" y2="507.2054">
					<stop  offset="0" style="stop-color:#A1D1DC"/>
					<stop  offset="0.5" style="stop-color:#6CBBCB"/>
					<stop  offset="1" style="stop-color:#00A6BB"/>
				</linearGradient>
				<path class="st8" d="M-28.4,1060.7c12.6-26.2,36.9-44.4,61.6-58.5c30.9-17.6,64.7-30,98.5-40.7c34.7-11,69.9-19.9,105.3-28.5
					c36.9-8.9,73.8-19.2,111.3-25c48.4-7.5,97.8-9.8,143.5-28.8c39.8-16.5,74.8-42.9,105.1-73.4c10.5-10.6,19.2-22.5,32.8-29.3
					c12-6,25.3-9.3,38.3-11.9c30-6,60.7-8.1,91-12.8c21.2-3.3,48.6-6.7,64.9-22.5c9.4-9.2,12.8-24.2,17.4-36.1
					c8.5-22,18.8-42.4,37.2-57.9c18.3-15.5,40.1-25.5,61.5-36.1c19.5-9.6,37.8-21.2,55-34.4c29.1-22.3,55.2-46.1,91.3-56.6
					c21.1-6.1,42.8-8.7,63.5-16.4c17.4-6.5,33.9-15,49.8-24.4c36.7-21.6,71.5-45,111.5-60.3c89.6-34.3,167.8-92.2,240.6-153.6
					c52-43.9,106.2-85.2,159-128.2c55-44.7,111-90.1,159.2-142.3c8.5-9.2,16.6-18.7,24.1-28.7c0.6-0.8-0.7-1.5-1.3-0.8
					c-17.9,24-39.4,45.2-61.1,65.7c-27,25.4-55.1,49.6-83.6,73.4c-55.8,46.6-113.3,91.1-169.7,136.9c-70,56.9-138.7,115-220.2,155.4
					c-20.6,10.2-42.1,17.9-63.3,27c-19.5,8.4-38,18.6-56.1,29.6c-34.7,21-68.2,43.6-107.7,54.8c-21.3,6-43.2,8.3-63.7,16.9
					c-15.1,6.4-28.8,15.2-41.7,25.2c-14.3,11-28,22.9-42.7,33.4c-18.6,13.2-38.5,23.3-58.8,33.4c-19.1,9.5-38.4,20.1-53.6,35.3
					c-14,13.9-22.5,31.4-29.6,49.6c-5.6,14.3-9.1,31.8-21.9,41.5c-9.3,7-21,10.6-32.1,13.4c-28.7,7.2-58.5,9.2-87.7,13.2
					c-25.2,3.4-53.5,6.6-75.6,20.2c-13,7.9-22.2,21.3-33,31.8c-16.3,15.8-33.8,30.4-52.8,42.9c-43.7,28.8-91.8,40.9-143.2,47.4
					c-77.1,9.7-153.1,28.3-227.9,49.2c-33.8,9.5-67.4,20.1-99.6,34.2c-27,11.8-54.3,26.2-75.4,47.1c-8.6,8.5-15.9,18.1-21.2,29
					C-30.1,1060.8-28.8,1061.6-28.4,1060.7L-28.4,1060.7z"/>
			</g>
		</g>
		<g>
			<g>
				<linearGradient id="SVGID_11_" gradientUnits="userSpaceOnUse" x1="-24.3577" y1="513.2966" x2="1900.1006" y2="513.2966">
					<stop  offset="0" style="stop-color:#A1D1DC"/>
					<stop  offset="0.5" style="stop-color:#6CBBCB"/>
					<stop  offset="1" style="stop-color:#00A6BB"/>
				</linearGradient>
				<path class="st9" d="M-23,1065.9c13.7-25.7,38.4-43.5,63.2-57.4c30.5-17.1,63.5-29.5,96.6-40.2c35.2-11.4,71-20.9,106.8-29.9
					c36.2-9.1,72.5-19.5,109.3-25.7c48.5-8.2,98.3-10.5,144.6-28.4c38.5-14.9,73.1-38.4,103.9-65.8c12-10.7,22.5-24.4,36.8-32.1
					c11.7-6.3,24.9-9.8,37.9-12.5c29.7-6.2,60-8.2,90-12.4c22.8-3.1,50.4-6.1,69.3-20.7c10.1-7.8,14.4-20.4,19.4-31.7
					c8.9-20.2,18.2-40.1,34.9-55.2c17.6-16.1,39.4-26.8,60.7-37c20-9.6,39-20.8,56.8-34.1c29.6-22.2,55.6-47.9,91.4-60.1
					c20.4-6.9,41.7-10,61.7-18.1c17.4-7,33.8-16.2,49.6-26.3c36-22.8,70-47.1,109.6-63.7c87.4-36.5,164.4-94.5,236.6-154.8
					c52.5-43.8,107-85.1,160.3-128.1c55.2-44.5,111.2-89.6,159.4-141.9c8.4-9.1,16.5-18.6,24-28.5c0.6-0.8-0.7-1.5-1.3-0.8
					c-39.4,52.6-92.9,95.7-143.2,137.4c-56.1,46.6-114,91-170.8,136.7c-70.4,56.7-139.3,114.9-219.8,157.1
					c-20.5,10.7-41.8,19.1-62.7,28.9c-19.4,9-37.7,20-55.5,31.7c-33.6,22-66.1,45.3-104.9,57.3c-19.4,6-39.4,9-58.1,17.3
					c-15.4,6.9-29.3,16.4-42.5,26.8c-15.4,12.2-30.3,25.1-46.5,36.2C976,602.8,956,612.2,936,622.3c-19.1,9.6-38.3,20.5-53.1,36.2
					c-14.2,15-22.3,33.9-30.5,52.6c-5.8,13.1-10.7,25-23.5,32.4c-10.6,6.1-22.7,9.3-34.6,11.8c-29.3,6.3-59.4,8.2-89.1,12.3
					c-24.5,3.4-52.6,6.8-73.6,21.1c-13.1,9-23.7,22.3-35.7,32.7c-17.2,15-35.6,28.7-55.3,40.3c-43.2,25.5-90.1,36.1-139.4,42.6
					c-77.1,10.1-153.1,29.8-227.7,51.3c-33.9,9.8-67.6,20.7-99.9,34.8c-27.2,11.9-54.5,26.2-76.2,46.8c-8.6,8.2-16.1,17.4-21.7,28
					C-24.7,1066-23.4,1066.8-23,1065.9L-23,1065.9z"/>
			</g>
		</g>
		<g>
			<g>
				<linearGradient id="SVGID_12_" gradientUnits="userSpaceOnUse" x1="-18.9481" y1="519.3868" x2="1906.1393" y2="519.3868">
					<stop  offset="0" style="stop-color:#A1D1DC"/>
					<stop  offset="0.5" style="stop-color:#6CBBCB"/>
					<stop  offset="1" style="stop-color:#00A6BB"/>
				</linearGradient>
				<path class="st10" d="M-17.5,1071.1c14.5-24.8,39.2-42.1,63.9-55.9c31-17.3,64.6-30,98.2-41.1c34.9-11.5,70.3-21.2,105.9-30.5
					c36.3-9.5,72.7-20.1,109.6-26.7c47-8.5,95.3-11.1,140.7-26.9c40-13.9,76.3-36.6,109.1-63.1c13.1-10.6,25-24.5,40-32.4
					c11.5-6,24.3-9.4,36.9-12c30.6-6.3,61.9-8.2,92.8-12.3c22.9-3,49.9-5.9,69.4-19.7c10.1-7.1,15.1-18.3,20.6-29.1
					c9.8-19.3,19.4-38.4,35.8-53c17.6-15.7,39.2-26.2,60.3-36.2c19.7-9.4,38.3-20,55.8-33c30.2-22.4,56.5-49.4,92.4-62.9
					c19.2-7.2,39.3-10.9,58.2-19.3c17.5-7.8,33.9-17.8,49.7-28.7c33.9-23.3,66-47.9,103.7-65c86.2-39.2,162.7-97.1,235.3-157.1
					c53-43.8,108-85.1,161.6-128C1777.8,93.9,1834,49,1882.1-3.2c8.4-9.1,16.4-18.5,23.9-28.4c0.6-0.8-0.7-1.5-1.3-0.8
					c-39.6,52.7-93.2,95.8-143.8,137.5c-56.4,46.4-114.5,90.6-171.6,136.1c-70.4,56.1-139.1,113.9-218.3,157.7
					c-20,11.1-41,20-61.4,30.3c-18.1,9.2-35.3,20.2-51.9,31.9c-32.4,22.7-63.6,47.1-101.3,60.6c-19.7,7.1-40.1,10.7-58.9,20
					c-14.8,7.3-28.1,16.9-40.8,27.3c-15.4,12.5-30.4,25.5-46.8,36.7c-18.5,12.6-38.5,21.8-58.5,31.8c-18.9,9.4-38,20.1-52.8,35.4
					c-13.7,14.1-22.1,31.7-31,49c-6.5,12.7-12.2,23.8-25,30.8c-11.1,6-23.7,9.2-36,11.6c-29.8,6-60.2,7.8-90.3,11.8
					c-24.7,3.3-52.9,6.7-74.1,21.1c-14.1,9.6-26.1,22.8-39.6,33.4c-18,14.1-37,27-57.1,37.8c-43.1,23.3-89.2,32.8-137.3,39.5
					c-77.1,10.7-153.2,31.2-227.9,53.4c-33.9,10.1-67.7,21.2-100.1,35.5c-27.3,12-54.7,26.3-76.9,46.6c-8.7,7.9-16.3,16.8-22.2,26.9
					C-19.3,1071.2-18,1071.9-17.5,1071.1L-17.5,1071.1z"/>
			</g>
		</g>
		<g>
			<g>
				<linearGradient id="SVGID_13_" gradientUnits="userSpaceOnUse" x1="-13.5387" y1="525.4762" x2="1912.1781" y2="525.4762">
					<stop  offset="0" style="stop-color:#A1D1DC"/>
					<stop  offset="0.5" style="stop-color:#6CBBCB"/>
					<stop  offset="1" style="stop-color:#00A6BB"/>
				</linearGradient>
				<path class="st11" d="M-12.1,1076.3c15.7-24.4,41-41.4,66-55.1c30.8-16.8,63.8-29.5,96.9-40.7c34.8-11.8,70.1-21.8,105.5-31.3
					c35.9-9.7,71.9-20.5,108.5-27.6c46.1-8.9,93.4-11.9,138.4-25.9c41.7-13,80-34.9,115-60.8c13.3-9.9,25.6-22.5,40.1-30.7
					c11.3-6.4,24.2-9.9,36.9-12.6c30.8-6.6,62.3-8.4,93.5-12.2c24.1-2.9,51.3-5.6,72.5-18.4c10.2-6.2,15.9-15.5,21.9-25.6
					c10.8-18.3,20.7-37.1,36.9-51.5c17.4-15.4,38.8-25.8,59.6-35.7c20.6-9.8,40.2-20.6,58.5-34.3c28.9-21.6,54.1-48,87.6-62.6
					c19.2-8.4,39.7-12.8,58.6-22c17.1-8.3,32.9-18.9,48.1-30.1c33.6-24.9,65.4-50.5,103.1-69.1c83.2-41,157.7-98.5,229.2-157
					c53.3-43.6,108.6-84.8,162.5-127.6c55.5-44.1,111.9-88.9,160.2-141.1c8.6-9.3,16.9-18.9,24.5-29c0.6-0.8-0.7-1.5-1.3-0.8
					c-39.8,52.9-93.6,96-144.5,137.6c-56.6,46.3-115,90.2-172.4,135.6c-70.3,55.5-139,113-216.7,158.2
					c-18.7,10.9-38.3,20.1-57.3,30.4c-18.2,9.8-35.3,21.5-51.9,33.9c-31.7,23.8-62.1,49.6-99.4,64.4c-18.9,7.5-38.5,11.9-56.5,21.6
					c-14.7,7.9-27.8,18-40.6,28.6c-15.2,12.7-30.2,25.6-46.7,36.7c-18.8,12.7-39.2,21.8-59.4,31.9c-18.7,9.4-37.7,19.9-52.4,35.1
					c-13.8,14.2-22.5,31.8-32.6,48.5c-7.1,11.8-14.2,20.4-26.9,26.3c-11.9,5.5-24.9,8.3-37.8,10.6c-30.7,5.5-61.8,7.1-92.7,11.3
					c-24.2,3.3-51.9,7-72.2,21.8c-15.6,11.5-30.1,24.4-46.1,35.5c-17.7,12.3-36.1,23.5-55.5,32.9c-43.6,21.4-89.9,29.7-137.6,36.7
					c-76.1,11.1-151.3,32.6-224.8,55c-34.2,10.4-68.2,21.9-100.9,36.4c-27,11.9-53.9,25.9-76.3,45.4c-8.9,7.7-16.9,16.4-23.3,26.4
					C-13.9,1076.4-12.6,1077.1-12.1,1076.3L-12.1,1076.3z"/>
			</g>
		</g>
		<g>
			<g>
				<linearGradient id="SVGID_14_" gradientUnits="userSpaceOnUse" x1="-8.1292" y1="531.5646" x2="1918.2168" y2="531.5646">
					<stop  offset="0" style="stop-color:#A1D1DC"/>
					<stop  offset="0.5" style="stop-color:#6CBBCB"/>
					<stop  offset="1" style="stop-color:#00A6BB"/>
				</linearGradient>
				<path class="st12" d="M-6.7,1081.5c16.5-23.6,41.7-40,66.7-53.5c31.4-17,64.9-30,98.6-41.6c34.4-11.9,69.4-22.1,104.5-31.9
					c35.3-9.8,70.7-20.7,106.6-28.2c46.3-9.7,93.8-12.9,139.3-26.1c41.2-11.9,79.6-32.1,115.2-55.9c14.8-9.9,28.6-22.3,44-31.1
					c11.2-6.4,23.9-10,36.4-12.7c30.6-6.7,62-8.4,93.1-11.9c25.1-2.8,52.7-5.3,75.5-17.2c10.4-5.4,17.1-13.4,23.7-23
					c11.7-17,21.9-35.2,37.7-49c17.6-15.4,39.2-25.8,60.2-35.8c20.2-9.6,39.6-19.9,57.7-33.2c29.3-21.6,54.3-48.8,87.4-64.9
					c18.8-9.2,39.1-14.3,57.6-24.3c16-8.6,30.7-19.2,44.9-30.5c32.7-25.9,63.5-52.9,100.5-72.6c81.1-43.3,154.6-100.5,225.9-158.1
					c54.4-44,110.7-85.7,165.7-129c55.3-43.6,111.4-88,159.3-139.8c8.6-9.3,16.8-18.8,24.4-28.9c0.6-0.8-0.7-1.5-1.3-0.8
					c-40,53-93.9,96.2-145.1,137.7c-56.3,45.7-114.3,89-171.4,133.6c-70.7,55.3-139.6,112.8-216.3,159.8
					c-35.1,21.5-71.5,39.4-103.9,65.2c-30.2,24.1-58.8,50.8-94.1,67.5c-18.9,8.9-39.1,14-57.3,24.4c-15,8.6-28.4,19.3-41.5,30.5
					c-15.6,13.3-31.2,26.6-48.4,37.9c-19.1,12.6-40,21.5-60.3,31.8c-18.6,9.4-37.4,19.9-51.9,35.1c-12.9,13.5-21.9,29.8-32.6,45
					c-16.1,22.7-40.8,28.9-67.2,33.3c-30.8,5.1-62.1,6.6-93,10.8c-24.8,3.3-52.4,7.2-73.1,22.3c-34.3,24.9-68.8,48.9-107.8,66.2
					c-42.9,19-88.1,26.6-134.2,33.7c-41.5,6.4-81.5,16.5-121.9,27.5c-34.8,9.5-69.7,19.1-104.1,30c-33.8,10.6-67.4,22.3-99.8,36.7
					c-27.1,12-54.1,25.9-77,45.1c-8.9,7.5-17.1,15.8-23.8,25.4C-8.5,1081.5-7.2,1082.3-6.7,1081.5L-6.7,1081.5z"/>
			</g>
		</g>
		<g>
			<g>
				<linearGradient id="SVGID_15_" gradientUnits="userSpaceOnUse" x1="-2.7194" y1="537.6523" x2="1924.2555" y2="537.6523">
					<stop  offset="0" style="stop-color:#A1D1DC"/>
					<stop  offset="0.5" style="stop-color:#6CBBCB"/>
					<stop  offset="1" style="stop-color:#00A6BB"/>
				</linearGradient>
				<path class="st13" d="M-1.3,1086.7c17.6-23,43.1-39.1,68.3-52.5c31.7-16.9,65.3-30,99.2-41.9c34.5-12.1,69.6-22.7,104.7-32.8
					c35.1-10.1,70.2-21.1,105.9-28.9c44.5-9.8,90.1-13.5,134.2-25.1c41.7-10.9,80.8-29.4,117.7-51.6c16.6-10,32.2-21.9,49-31.7
					c11.3-6.6,24.3-10.3,37-13.1c31.2-6.8,63.4-8.4,95.1-11.8c25.5-2.7,53-5.1,76.4-16.3c11.4-5.4,19-13.5,26.7-23.4
					c12.1-15.6,23-32.1,38.3-44.9c34.2-28.3,79.2-39.7,115.1-65.7c30.6-22.2,56.2-51,90.1-68.6c18.6-9.7,38.4-15.8,56.3-26.9
					c15.1-9.3,28.9-20.3,42.3-31.9c31.4-27.1,61.3-54.1,97.4-75.1c78.6-45.6,150.7-102.2,221.4-158.9
					c54.3-43.5,110.4-84.6,165.2-127.4c55.8-43.6,112.5-88.1,160.7-140.3c8.5-9.2,16.7-18.7,24.2-28.7c0.6-0.8-0.7-1.5-1.3-0.8
					c-40.2,53.2-94.3,96.4-145.8,137.9c-56.5,45.5-114.9,88.6-172.3,133.1c-69.7,54.1-137.7,110.3-211.8,158.4
					c-34.5,22.4-70.4,41.4-101.9,68.2c-29.6,25.2-57.2,53.2-91.9,71.5c-17.7,9.3-36.9,15.1-54.1,25.5c-15.3,9.3-29,20.8-42.5,32.5
					c-15.6,13.5-31.3,27-48.7,38.2c-18.6,12.1-38.7,20.7-58.5,30.5c-18.2,9-36.6,18.8-51.4,32.9c-14.1,13.4-24.2,30-36.6,44.9
					c-17.4,21-44.1,26.4-70,30.3c-31.6,4.8-63.6,6.2-95.2,10.5c-26.5,3.6-52.1,8.8-74.5,24.1c-35.9,24.5-73.4,47-113.9,63
					c-42.8,16.9-87.5,23.4-132.6,30.8c-39.9,6.5-78.4,16.9-117.2,27.8c-34.5,9.7-69,19.6-103.2,30.6
					c-33.9,10.9-67.6,22.8-100.2,37.2c-27.7,12.2-55.2,26.2-78.9,45.3c-9,7.2-17.2,15.2-24.2,24.3
					C-3.2,1086.7-1.9,1087.4-1.3,1086.7L-1.3,1086.7z"/>
			</g>
		</g>
		<g>
			<g>
				<linearGradient id="SVGID_16_" gradientUnits="userSpaceOnUse" x1="2.7836" y1="543.7927" x2="1930.2943" y2="543.7927">
					<stop  offset="0" style="stop-color:#A1D1DC"/>
					<stop  offset="0.5" style="stop-color:#6CBBCB"/>
					<stop  offset="1" style="stop-color:#00A6BB"/>
				</linearGradient>
				<path class="st14" d="M4,1092c18.1-21.6,42.7-37,67.3-50.2c31.1-16.6,64-29.8,97.1-41.7c34.4-12.4,69.3-23.4,104.3-33.8
					c34.9-10.4,69.9-21.5,105.3-30c44-10.6,89.1-14.8,133.1-25.2c42-9.9,81.8-26.5,119.7-46.9c29.9-16.1,57.1-37.9,90.6-45.7
					c30.4-7.1,62-8.8,93-11.7c27.6-2.6,57-4.7,82.9-15.4c28.7-11.8,42.8-41.8,65.6-61.2c33.6-28.7,78.6-39.5,114.7-64.5
					c32.4-22.4,58.5-53.1,92.7-72.9c17.3-10,36.1-16.8,52.8-27.9c14.9-9.8,28.4-21.4,41.5-33.5c29.7-27.5,57.7-55.6,92.3-77.2
					c77.4-48.3,149.4-105,220.7-161.6c55.4-43.9,112.6-85.5,168.5-128.8c55.3-42.9,111.3-86.7,159.1-138.1
					c8.7-9.4,17.1-19.2,24.9-29.4c0.6-0.8-0.7-1.5-1.3-0.8c-39.8,52.6-93.1,95.3-144.2,136.2c-57.8,46.3-117.6,89.9-176.3,135.1
					c-69.6,53.5-137.4,109.2-210,158.6c-33.3,22.6-67.5,42.6-97.4,69.8c-28.2,25.7-54.1,54.2-87.1,73.9
					c-17.8,10.6-37.3,17.4-54.6,28.9c-14.6,9.7-27.8,21.4-41,33c-15.6,13.8-31.4,27.3-49,38.5c-19.3,12.4-40.4,21.2-61,31.3
					c-18.1,8.9-36.1,18.7-50.9,32.6c-13.5,12.6-23.9,27.9-36.9,41c-19.7,20-50.1,24.3-76.8,27.8c-30.9,4-62.2,5.4-93.1,9.7
					c-13.7,1.9-27.3,4.2-40.6,8.2c-13.1,3.9-24,10.2-35.6,17.3c-36.5,22.4-74.2,43-114.5,57.8c-43.3,15.9-88.3,22-133.5,29.9
					c-39.5,6.9-77.7,17.7-116.1,28.8c-34.4,10-68.8,20.2-102.9,31.4c-61.3,20.2-127.1,42.4-179,82C19,1074.3,10.4,1082,3,1091
					C2.4,1091.7,3.4,1092.8,4,1092L4,1092z"/>
			</g>
		</g>
		<g>
			<g>
				<linearGradient id="SVGID_17_" gradientUnits="userSpaceOnUse" x1="8.1899" y1="549.8821" x2="1936.333" y2="549.8821">
					<stop  offset="0" style="stop-color:#A1D1DC"/>
					<stop  offset="0.5" style="stop-color:#6CBBCB"/>
					<stop  offset="1" style="stop-color:#00A6BB"/>
				</linearGradient>
				<path class="st15" d="M9.5,1097.2c18.8-20.7,43.3-35.6,67.8-48.5c31.7-16.7,65.1-30.2,98.8-42.6c34.5-12.6,69.5-23.9,104.6-34.7
					c35-10.7,70.2-22.1,105.8-30.9c43.5-10.8,88.2-15.5,131.9-25.5c41.8-9.5,81.8-25,120.2-43.9c30.6-15.1,59.3-36,92.9-43.9
					c31.1-7.3,63.3-8.9,95.1-11.7c27.9-2.5,57.3-4.6,83.8-14.5c29.3-10.9,45.5-38.7,69.3-57.5c34.5-27.2,78.7-38,114.7-63
					c32.5-22.6,58.4-53.4,92-74.4c17-10.7,35.4-18.5,51.6-30.6c14.2-10.6,27.1-22.8,39.6-35.3c29.3-29.4,57.3-58,91.9-81.4
					c74.2-50.4,144.7-106.2,215.3-161.6c55.9-43.9,113.6-85.3,170-128.7c54.4-41.9,109.4-84.9,156.4-135.3
					c8.9-9.6,17.4-19.5,25.3-29.9c0.6-0.8-0.7-1.5-1.3-0.8c-39.7,52.4-92.8,94.9-143.9,135.5c-57.5,45.8-117.1,88.8-175.5,133.3
					c-69.1,52.6-136.4,107.5-207,158.1c-32.5,23.4-66.3,44.3-95.2,72.2c-27.7,26.7-52.6,56.8-84.8,78.5
					c-16.8,11.3-35.6,19-52.2,30.6c-14.7,10.3-27.9,22.4-41.2,34.3c-15.6,14.1-31.6,27.8-49.4,39.2c-18.2,11.7-37.9,20.1-57.4,29.3
					c-18.4,8.6-36.8,17.8-52.5,30.8c-14.7,12.1-26.4,27.2-40.6,39.9c-21.3,19-51.8,23.2-79.1,26.5c-31.7,3.9-63.7,5.2-95.3,9.5
					c-13.6,1.8-27.2,4.2-40.4,8c-13.4,4-25,10.4-37.1,17.2c-37.8,21-76.6,40.4-117.6,54.4c-42.7,14.5-86.8,20.6-130.9,28.6
					c-39.5,7.2-77.7,18.2-116.2,29.7c-34.5,10.3-69,20.8-103.2,32.3c-61.8,20.8-127.3,43.4-180.5,82.1c-9.6,7-18.6,14.6-26.6,23.4
					C7.7,1096.9,8.8,1097.9,9.5,1097.2L9.5,1097.2z"/>
			</g>
		</g>
		<g>
			<g>
				<linearGradient id="SVGID_18_" gradientUnits="userSpaceOnUse" x1="13.5969" y1="555.971" x2="1942.3717" y2="555.971">
					<stop  offset="0" style="stop-color:#A1D1DC"/>
					<stop  offset="0.5" style="stop-color:#6CBBCB"/>
					<stop  offset="1" style="stop-color:#00A6BB"/>
				</linearGradient>
				<path class="st16" d="M14.9,1102.4c20.1-20.3,45.3-35.1,70.5-48.1c31.7-16.3,64.8-29.8,98.2-42.3
					c34.6-12.9,69.6-24.5,104.8-35.6c34.9-11,69.9-22.5,105.4-31.6c41.6-10.7,84.1-15.9,126.1-24.8c42.4-9,83.3-23.2,122.8-40.9
					c18.8-8.4,37.4-17.5,55.8-26.8c13.5-6.8,26.5-12.6,41.2-16.1c31.3-7.5,63.8-9.1,95.7-11.8c29.1-2.5,59.5-4.5,87.4-13.9
					c30-10.1,48.3-35.8,73.2-53.8c34.4-25,76.9-35.7,112.1-59.5c33.2-22.5,59.1-53.8,92-76.7c15.5-10.7,32.3-18.9,47.1-30.6
					c14.8-11.7,28-25.2,40.8-39c27.9-30.3,54.7-59.7,88.2-84.2c71.4-52.1,140.8-107.1,210.6-161.4c56.7-44.2,115.3-85.8,172.4-129.4
					c55-41.9,110.6-85,157.8-135.8c8.9-9.5,17.3-19.4,25.2-29.8c0.6-0.8-0.7-1.5-1.3-0.8c-39.9,52.5-93.2,95.1-144.6,135.7
					c-57.8,45.6-117.8,88.5-176.6,132.9c-69,52-136.2,106.4-205.2,158.3c-32,24.1-64.8,46.4-92.7,75.4
					c-26.3,27.3-49.7,57.7-80.3,80.6c-16.4,12.3-35,21-51.4,33.5c-14.8,11.3-28.2,24.4-42,36.9c-15.6,14.3-31.9,27.8-50,39
					c-17.8,11-37.1,19-56,27.8c-18.2,8.5-36.4,17.4-52.3,29.9c-15.4,12-28.3,27.1-44.3,38.3c-22.8,16-53.8,19.4-80.7,22.3
					c-31.3,3.5-62.9,4.8-94.1,9c-14.5,1.9-29.1,4.4-43.1,8.8c-14.1,4.4-26.8,11.6-39.9,18.1c-38.7,19.3-78.2,37.2-119.6,50
					c-42.2,13-85.7,18.8-128.9,27.1c-38.6,7.5-76,18.7-113.5,30.2c-34.7,10.6-69.2,21.5-103.5,33.3
					c-62.1,21.4-127.2,44.5-181.5,82.4c-9.6,6.7-18.8,14-27,22.4C13.1,1102,14.2,1103.1,14.9,1102.4L14.9,1102.4z"/>
			</g>
		</g>
		<g>
			<g>
				<linearGradient id="SVGID_19_" gradientUnits="userSpaceOnUse" x1="19.005" y1="562.0594" x2="1948.4104" y2="562.0594">
					<stop  offset="0" style="stop-color:#A1D1DC"/>
					<stop  offset="0.5" style="stop-color:#6CBBCB"/>
					<stop  offset="1" style="stop-color:#00A6BB"/>
				</linearGradient>
				<path class="st17" d="M20.3,1107.6c20.6-19.1,45.5-33.4,70.4-46.2c31.6-16.2,64.5-29.8,97.7-42.4c67.6-25.7,137-48.9,206.7-68.2
					c41.6-11.5,84.2-17.5,126.4-26c43.5-8.7,85.6-21.9,126.7-38.6c18-7.3,35.7-15.1,53.3-23.1c15-6.8,29.6-13.8,45.6-17.8
					c31.7-7.9,64.8-9.6,97.2-12.2c29.9-2.4,60.7-4.3,89.7-12.8c31.8-9.3,52.8-33.6,79.8-51.3c36.2-23.6,79-34.5,114.4-59.5
					c33.1-23.3,58.8-55.2,91.6-78.8c15.2-10.9,30.9-20.3,44.8-33c13.7-12.5,25.9-26.5,37.9-40.7c25.5-30.1,50.7-58.8,81.9-83.3
					c70.1-55,140-110.4,210.6-164.8c56.4-43.4,114.6-84.4,171.3-127.3c54.7-41.4,110-84.1,156.9-134.5c8.8-9.5,17.2-19.3,25-29.6
					c0.6-0.8-0.7-1.5-1.3-0.8c-40.1,52.7-93.6,95.3-145.3,135.8c-58.2,45.6-118.5,88.2-177.7,132.5
					c-67.3,50.3-132.9,102.9-198.9,154.9c-31.2,24.6-63.5,47.9-90.4,77.4c-25.3,27.7-47.2,58.6-75.6,83.4
					c-14.6,12.8-31.5,22.1-46.8,33.9c-15.5,12-29.4,25.8-43.7,39.2c-15.8,14.9-32.2,29.2-50.6,40.9c-18.5,11.8-38.6,20.2-58.5,29.2
					c-19.5,8.8-38.8,17.9-56,30.6c-14.9,10.9-28.2,24.1-44.1,33.6c-24.8,14.8-56.2,18-84.3,20.9c-32,3.3-64.2,4.6-96,8.9
					c-14.9,2-29.8,4.7-44.2,9.3c-14.8,4.8-28.8,12.2-43,18.6c-39.5,17.7-79.6,34.1-121.4,45.9c-41.9,11.8-85.1,17.3-127.6,26.2
					c-38.1,7.9-75.2,19.5-112.3,31.2c-34.6,10.9-69.1,22.1-103.3,34.2c-61.9,21.9-126.1,45.3-180.9,82.1
					c-9.6,6.4-18.7,13.4-27.2,21.2C18.5,1107.2,19.6,1108.3,20.3,1107.6L20.3,1107.6z"/>
			</g>
		</g>
		<g>
			<g>
				<linearGradient id="SVGID_20_" gradientUnits="userSpaceOnUse" x1="24.4143" y1="568.1476" x2="1954.4491" y2="568.1476">
					<stop  offset="0" style="stop-color:#A1D1DC"/>
					<stop  offset="0.5" style="stop-color:#6CBBCB"/>
					<stop  offset="1" style="stop-color:#00A6BB"/>
				</linearGradient>
				<path class="st18" d="M25.7,1112.8c21.9-18.7,47.5-32.9,73.1-45.7c32-16,65.1-29.7,98.5-42.6c68.5-26.3,138.8-50.7,209.5-70.4
					c41.2-11.5,83.3-17.8,125.1-26.2c42.6-8.5,84.1-20.9,124.8-36.1c18.8-7,37.4-14.5,56-22.1c15.4-6.3,30.5-12.8,46.8-16.6
					c31.9-7.4,65-9.1,97.6-11.6c30.9-2.4,62.6-4.4,92.5-12.8c32.1-9,55.5-32.1,83.9-48.4c36.6-21,77.9-32.2,112.5-57
					c31.9-22.9,56.7-53.6,87.2-78.1c14.8-11.9,30.2-22.2,43.7-35.8c13.1-13.2,24.7-27.6,36.2-42.2c23.8-30.4,47.4-59.8,77.1-84.8
					c67.1-56.6,135.9-111.1,205.6-164.5c57.6-44.1,117.2-85.6,175.3-129.2c55-41.2,110.5-83.7,157.6-134.2
					c9-9.7,17.7-19.8,25.7-30.3c0.6-0.8-0.7-1.5-1.3-0.8c-40.3,52.8-94,95.5-146.1,136c-58.9,45.7-120.1,88.5-179.9,132.9
					c-67.1,49.9-132.7,101.9-197.3,155.1c-30.1,24.8-60.7,48.9-86,78.8c-23.9,28.2-44.4,59.3-71,85.1
					c-14.1,13.7-30.6,24.2-45.5,36.8c-14.5,12.2-27.7,25.9-41.3,39.1c-15.1,14.6-30.9,28.6-48.5,40.2
					c-18.1,11.9-37.7,20.5-57.5,29.1c-19.5,8.5-39.1,17-57.1,28.5c-15.4,9.9-29.6,21.7-45.5,30.8c-26.9,15.2-59.7,18.6-89.8,21.5
					c-32.8,3.2-65.7,4.5-98.3,8.9c-14.2,1.9-28.5,4.4-42.3,8.6c-17,5.1-33.2,12.9-49.6,19.5c-38.5,15.5-77.5,30-117.6,40.8
					c-42.2,11.4-85.5,17-128.2,26.2c-37.7,8.1-74.3,19.8-110.9,31.6c-35.1,11.3-70.2,23-104.9,35.6
					c-62.3,22.5-126.4,46.4-182.4,82.2c-9.9,6.3-19.5,13.2-28.5,20.8C23.9,1112.4,25,1113.4,25.7,1112.8L25.7,1112.8z"/>
			</g>
		</g>
		<g>
			<g>
				<linearGradient id="SVGID_21_" gradientUnits="userSpaceOnUse" x1="29.8251" y1="574.2357" x2="1960.4878" y2="574.2357">
					<stop  offset="0" style="stop-color:#A1D1DC"/>
					<stop  offset="0.5" style="stop-color:#6CBBCB"/>
					<stop  offset="1" style="stop-color:#00A6BB"/>
				</linearGradient>
				<path class="st19" d="M31.1,1118c49.8-39.2,112.4-63.5,170.9-86.4c68-26.6,137.6-51.1,207.7-71.7c40.7-12,82.1-19.1,123.7-27.1
					c43.1-8.3,85.4-19.7,127-33.7c19.7-6.6,39.2-13.7,58.7-20.8c15.9-5.9,31.7-12.3,48.3-16.2c33.1-7.8,67.4-9.5,101.1-12.1
					c31.9-2.4,64.5-4.4,95.6-12.5c33.7-8.8,60.1-31,90.9-46.3c38.2-19,79-31.1,113.3-57.3c30.8-23.5,54.8-54.2,84.3-79.1
					c14.5-12.3,28.5-24.1,41-38.5c11.4-13.2,21.7-27.2,31.8-41.3c23.1-32,46.6-62.1,76.1-88.6c63.3-57,130.2-110,198-161.6
					c57.9-44,117.7-85.2,176-128.5c55.3-41.1,111-83.4,158.3-133.8c9.3-9.9,18.2-20.2,26.4-31c0.6-0.8-0.7-1.5-1.3-0.8
					c-41,53.8-95.9,97-149.2,138c-58.2,44.7-118.6,86.5-177.8,130c-66.1,48.7-130.9,99.6-193.3,153.1
					c-29.1,24.9-58.6,49.7-82.7,79.6c-23.3,28.9-42.7,60.8-67.6,88.5c-12.8,14.3-27.7,25.7-42,38.3c-14.6,12.9-27.8,27.1-41.5,40.9
					c-15,15.1-30.8,29.6-48.5,41.6c-17.4,11.8-36.5,20.5-55.8,28.8c-19.9,8.5-40.1,16.5-59,27.2c-16.8,9.5-32.5,20.8-49.8,29.3
					c-28.2,13.8-61.1,17.2-92,20c-33.6,3.1-67.3,4.5-100.8,8.9c-34,4.6-64.4,16.1-96.4,27.8c-40.3,14.6-81,28.3-122.6,38.5
					c-41.4,10.1-83.8,15.8-125.3,25.3c-72.3,16.7-143.3,42.7-212.9,68.4c-62.2,22.9-125.5,47.2-182.3,81.8
					c-10.2,6.2-20.1,12.9-29.6,20.3C29.3,1117.5,30.4,1118.6,31.1,1118L31.1,1118z"/>
			</g>
		</g>
		<g>
			<g>
				<linearGradient id="SVGID_22_" gradientUnits="userSpaceOnUse" x1="35.3336" y1="580.3737" x2="1966.5266" y2="580.3737">
					<stop  offset="0" style="stop-color:#A1D1DC"/>
					<stop  offset="0.5" style="stop-color:#6CBBCB"/>
					<stop  offset="1" style="stop-color:#00A6BB"/>
				</linearGradient>
				<path class="st20" d="M36.4,1123.3c51.1-37,112-61.4,170.2-84.6c66.9-26.6,135-50.9,203.7-72.4c39.1-12.2,78.7-20.3,118.9-27.8
					c43.6-8.2,86.7-18.3,129.2-31c37.9-11.4,75.2-26.4,113.6-36c33.7-8.4,68.8-10.4,103.3-12.9c32.6-2.4,65.5-4.3,97.5-11.1
					c33.9-7.2,61.7-25.2,92.6-40c38-18.2,79.1-29.6,113.6-54.5c31.5-22.8,55.5-53.2,83.2-80.2c13.7-13.4,27.9-25.8,40.1-40.7
					c11.2-13.7,21.2-28.4,31-43.1c21.8-32.6,43.6-64.4,71.8-91.9c60.3-58.8,126.6-111.4,193.7-162.2
					c59.6-45.1,121.2-87.2,181.4-131.4c55.6-40.9,111.6-83.1,159-133.5c9.6-10.2,18.7-20.7,27.1-31.8c0.6-0.8-0.7-1.5-1.3-0.8
					c-41.6,54.4-97.2,98-151.3,139.2c-59,44.9-120.3,86.7-180.1,130.5c-65.9,48.3-130.6,98.8-191.4,153.3
					c-27.5,24.6-54.7,49.7-76.8,79.3c-22.9,30.6-41.7,64.2-66.1,93.6c-12.3,14.8-26.8,27.1-40.5,40.6c-13.7,13.6-26.5,28.2-40,42
					c-14.5,14.8-29.9,28.7-47.1,40.2c-17.9,12-37.4,20.6-57.2,28.8c-18.8,7.8-37.9,15.1-56.1,24.2c-18.1,9.1-35.5,20-54.4,27.5
					c-29.8,11.9-62.9,14.9-94.6,17.7c-33.6,2.9-67.4,4.3-100.9,8.8c-35.8,4.8-68.9,16.8-103.1,27.9c-40.7,13.2-81.8,25.7-123.6,35.1
					c-40.5,9.2-81.7,14.9-122,24.7c-71.5,17.4-141.6,43.6-210.3,69.5c-62.1,23.4-124.9,48.1-182.6,81.4
					c-10.7,6.2-21.2,12.8-31.3,20.1C34.9,1122.6,35.6,1123.9,36.4,1123.3L36.4,1123.3z"/>
			</g>
		</g>
		<g>
			<g>
				<linearGradient id="SVGID_23_" gradientUnits="userSpaceOnUse" x1="40.7413" y1="586.4637" x2="1972.5653" y2="586.4637">
					<stop  offset="0" style="stop-color:#A1D1DC"/>
					<stop  offset="0.5" style="stop-color:#6CBBCB"/>
					<stop  offset="1" style="stop-color:#00A6BB"/>
				</linearGradient>
				<path class="st21" d="M41.8,1128.5c52.6-35,112.5-59.6,170.8-83.1c67-27.1,135.2-52,204.1-74.1c38.6-12.4,77.7-21.1,117.4-28.5
					c44-8.2,87.5-17.8,130.6-29.6c38.5-10.5,76.5-23.6,115.2-32.9c34.7-8.4,70.8-10.6,106.3-13.2c34.1-2.5,68.6-4.4,102.2-11.1
					c36.3-7.2,67.7-24.8,101.7-38.6c37.1-15.1,75.6-27.3,108.1-51.6c30.1-22.5,53-51.9,78.4-79.2c12.3-13.2,25-25.8,35.9-40.3
					c10.9-14.6,20.7-30,30.2-45.5c20.5-33.3,40.9-66.1,68-94.6c57.5-60.5,123.5-113,190.1-163.1c60.2-45.4,122.7-87.6,183.7-131.9
					c56.3-40.9,112.9-83.3,160.7-134.1c9.5-10.1,18.6-20.6,27-31.6c0.6-0.8-0.7-1.5-1.3-0.8c-41.8,54.6-97.6,98.3-152.2,139.4
					c-59.5,44.8-121.3,86.5-181.5,130.3c-66,48-130.9,98.3-190.4,154.1c-26.9,25.2-52.7,51.4-73.7,81.8
					c-20.9,30.3-38,63.1-59.9,92.8c-11.7,15.8-25.3,29.3-38.6,43.7c-12.8,13.8-24.8,28.2-37.6,41.9c-14.5,15.4-30,29.8-47.5,41.7
					c-17.5,11.9-36.7,20.7-56.3,28.6c-18.3,7.4-36.9,14-55,21.9c-18.5,8.1-36.4,17.5-55.4,24.3c-32.2,11.7-67.1,14.9-101.1,17.7
					c-34.5,2.8-69.2,4.4-103.6,8.9c-36.2,4.8-70.5,16-105.4,26.1c-41.6,12.1-83.3,23.6-125.7,32.7c-40.7,8.7-81.9,14.8-122.2,25.1
					c-71.1,18.2-140.7,44.7-209.1,70.9c-62,23.8-124.2,48.9-182.4,80.9c-11,6.1-21.9,12.5-32.4,19.5
					C40.3,1127.7,41,1129,41.8,1128.5L41.8,1128.5z"/>
			</g>
		</g>
		<g>
			<g>
				<linearGradient id="SVGID_24_" gradientUnits="userSpaceOnUse" x1="46.1506" y1="592.5537" x2="1978.604" y2="592.5537">
					<stop  offset="0" style="stop-color:#A1D1DC"/>
					<stop  offset="0.5" style="stop-color:#6CBBCB"/>
					<stop  offset="1" style="stop-color:#00A6BB"/>
				</linearGradient>
				<path class="st22" d="M47.3,1133.7c53.5-32.7,112.1-57.4,170-81.1c66.5-27.3,134-52.5,202.2-75.2
					c80.2-26.7,164.3-37.4,246.2-57.5c40.6-10,80.9-21.6,121.7-31c35.5-8.2,72.1-10.7,108.4-13.3c35.1-2.5,70.3-4.5,105-10.4
					c37.9-6.4,72.2-21.8,108-34.9c36.8-13.5,74.3-25.8,106-49.5c30-22.4,52.6-52,76.6-80.4c11.4-13.5,23-26.6,33-41.3
					c10.5-15.4,19.8-31.5,28.9-47.7c19.2-34,38.4-67.7,64.4-97.1C1472,452.8,1536.7,401,1602,352c60.8-45.7,124.1-88,185.9-132.4
					c57.4-41.3,115.2-84.1,163.8-135.8c9.4-10.1,18.4-20.5,26.8-31.5c0.6-0.8-0.7-1.5-1.3-0.8c-42.4,55.3-99,99.3-154.5,140.6
					c-60.4,45-123.2,86.8-184.2,131c-64.9,47-129,96.3-186.2,152.6c-25.5,25.1-49.5,51.4-68.9,81.5c-20.4,31.6-36.7,65.7-57.5,97
					c-11.2,16.9-24.5,31.9-37.6,47.4c-11.7,13.9-23,28.2-35.3,41.7c-28.6,31.4-61.7,53.7-101.2,69.3c-19.5,7.7-39.4,14.3-58.9,21.9
					c-18.8,7.3-37.4,15.3-56.8,21c-34.1,10.1-70.1,13.1-105.4,15.8c-35.6,2.7-71.2,4.5-106.6,9.3c-37.1,5-73.2,15.8-109.4,25.1
					c-41.8,10.8-83.8,21.2-126.1,29.8c-39.6,8-79.6,14.3-118.6,24.8c-71.3,19.1-141,46.2-209.6,73.1
					c-61.6,24.2-123.2,49.5-181.7,80.5c-10.9,5.8-21.7,11.8-32.2,18.2C45.7,1132.9,46.4,1134.2,47.3,1133.7L47.3,1133.7z"/>
			</g>
		</g>
		<g>
			<g>
				<linearGradient id="SVGID_25_" gradientUnits="userSpaceOnUse" x1="51.5617" y1="598.6438" x2="1984.6426" y2="598.6438">
					<stop  offset="0" style="stop-color:#A1D1DC"/>
					<stop  offset="0.5" style="stop-color:#6CBBCB"/>
					<stop  offset="1" style="stop-color:#00A6BB"/>
				</linearGradient>
				<path class="st23" d="M52.7,1138.9c55.1-30.9,113.7-56,172-80.2c65.8-27.3,132.4-52.9,199.8-75.9
					c78.8-26.9,160.8-38.6,241.8-56.5c41.5-9.2,82.9-19.1,124.4-28.1c37.1-8.1,74.9-11.3,112.7-14c36.6-2.7,73.3-4.7,109.6-9.9
					c38.5-5.5,74.5-17.8,111.2-29.9c37.4-12.3,75.4-24.7,107.2-48.7c29-21.8,51-50.5,72.9-79.1c11.4-14.9,22.8-29.5,32.6-45.5
					c9.8-16,18.5-32.6,27.1-49.3c18-34.7,36-69.2,60.8-99.6c51-62.5,115.1-114,179.4-162.1c61.5-46.1,125.7-88.4,188.3-133
					c57.8-41.1,115.9-83.8,164.7-135.5c9.6-10.2,18.8-20.9,27.4-32c0.6-0.8-0.7-1.5-1.3-0.8c-42.6,55.5-99.5,99.7-155.5,140.9
					c-61,45-124.4,86.7-186,131c-64.8,46.6-129,95.7-184.7,153.2c-24.9,25.7-47.6,53.2-65.8,84.1c-18.9,32.1-34.1,66.3-53.3,98.3
					c-19.4,32.5-44,63.7-69,92.1c-28.3,32-62,54.4-101.8,69.6c-19.5,7.4-39.5,13.6-59.3,20.3c-18.9,6.3-37.7,12.9-57.1,17.5
					c-36.4,8.8-74.1,11.7-111.3,14.4c-36.2,2.7-72.6,4.7-108.6,9.5c-38.6,5.2-76.6,15.2-114.5,23.9c-42.6,9.7-85.2,19.3-128.1,27.6
					c-38.4,7.5-76.9,14.1-114.6,24.8c-70.4,19.9-139.2,47-207.1,74.2c-61.3,24.5-122.4,50.2-181.4,80c-11.2,5.6-22.2,11.4-33.1,17.6
					C51.1,1138.1,51.8,1139.4,52.7,1138.9L52.7,1138.9z"/>
			</g>
		</g>
		<g>
			<g>
				<linearGradient id="SVGID_26_" gradientUnits="userSpaceOnUse" x1="56.9745" y1="604.7341" x2="1990.6813" y2="604.7341">
					<stop  offset="0" style="stop-color:#A1D1DC"/>
					<stop  offset="0.5" style="stop-color:#6CBBCB"/>
					<stop  offset="1" style="stop-color:#00A6BB"/>
				</linearGradient>
				<path class="st24" d="M58.1,1144.1c56.7-29.1,115.2-54.7,174-79.3c66.5-27.9,133.6-54.5,201.8-78c78.8-27.2,160.5-39.8,242-56.2
					c41.7-8.4,83.3-17,125.1-24.9c39-7.3,78.4-10.7,117.9-13.5c39.5-2.8,79.1-5.1,118.3-10.5c38.9-5.3,76.5-15.6,114-26.9
					c36.4-11,72.1-24.4,102-48.5c28.2-22.7,49.3-52.1,69.7-81.6c21.2-30.8,37.8-63.3,53.7-97c16-33.9,32.5-67.6,55.2-97.6
					c47.8-63.2,110.8-114.3,173.8-161.5c62.4-46.7,127.7-89.3,191.4-134.2c58.1-40.9,116.6-83.5,165.6-135.3
					c9.9-10.4,19.2-21.3,27.9-32.6c0.6-0.8-0.7-1.5-1.3-0.8c-42.9,55.8-100.1,100-156.6,141.3c-61.6,45.1-125.7,86.7-187.8,131
					c-63.8,45.6-127.2,93.8-180.7,151.3c-23.7,25.4-44.8,52.8-61.7,83.3c-18.5,33.4-32.9,68.8-50.8,102.5
					c-17.1,32.3-38.4,63.4-61.5,91.7c-26,31.9-57.8,56.2-96,71.6c-37.8,15.2-78.5,26.5-118.4,35.1c-38.5,8.3-78.1,11.4-117.3,14.3
					c-39.2,2.9-78.4,5.1-117.4,10c-38.4,4.9-76.4,13.2-114.3,20.9c-43.2,8.7-86.4,17.5-129.7,25.8c-38.6,7.4-77.2,14.3-115,25.3
					c-70.7,20.5-139.6,48.2-207.7,75.9c-61.6,25.1-122.8,51.3-182.7,80.1c-11.5,5.5-22.9,11.2-34.2,17
					C56.5,1143.2,57.3,1144.5,58.1,1144.1L58.1,1144.1z"/>
			</g>
		</g>
		<g>
			<g>
				<linearGradient id="SVGID_27_" gradientUnits="userSpaceOnUse" x1="62.389" y1="610.8246" x2="1996.72" y2="610.8246">
					<stop  offset="0" style="stop-color:#A1D1DC"/>
					<stop  offset="0.5" style="stop-color:#6CBBCB"/>
					<stop  offset="1" style="stop-color:#00A6BB"/>
				</linearGradient>
				<path class="st25" d="M63.5,1149.3c122.7-57.7,247.8-112.1,375.7-157.2c36.8-13,74.1-24.6,112.4-32.2
					c43.2-8.6,86.6-16.5,130-24.5c41.8-7.7,83.7-15.1,125.8-21.8c41.7-6.6,83.5-10.4,125.6-13.4c80.5-5.8,160.4-10.9,238.5-32.6
					c36.3-10.1,71.4-24.1,100.6-48.5c27.3-22.8,47.6-52.1,66-82.2c39.5-64.4,58.4-139.5,102.2-201.3
					c45.4-64.1,108.3-115,170.8-161.5c62.5-46.6,128.2-88.7,192.1-133.3c58-40.5,116.3-82.7,165.2-134.3c10-10.5,19.4-21.5,28.3-33
					c0.6-0.8-0.7-1.5-1.3-0.8c-43.2,56.1-100.7,100.4-157.6,141.7c-61.4,44.5-125.3,85.5-187.2,129.3
					c-63.1,44.5-125.9,92.1-177.8,149.5c-23.7,26.2-44.2,54.7-60.5,86.1c-17.5,33.8-30.8,69.4-46.8,103.8
					c-32.1,69-76.8,137.7-149.5,168c-76.6,31.9-161.7,39.1-243.6,44.9c-40.7,2.9-81.5,5.4-122.1,10.2
					c-39.8,4.7-79.3,11.8-118.7,18.8c-43.2,7.6-86.3,15.6-129.4,23.7c-38.7,7.3-77.2,14.7-115,26.1
					c-70.4,21.3-138.9,49.2-206.8,77.4c-61.3,25.4-122.1,51.9-182.4,79.6c-11.7,5.4-23.4,10.8-35.1,16.3
					C61.9,1148.4,62.7,1149.7,63.5,1149.3L63.5,1149.3z"/>
			</g>
		</g>
		<g>
			<g>
				<linearGradient id="SVGID_28_" gradientUnits="userSpaceOnUse" x1="67.8051" y1="616.9156" x2="2002.7587" y2="616.9156">
					<stop  offset="0" style="stop-color:#A1D1DC"/>
					<stop  offset="0.5" style="stop-color:#6CBBCB"/>
					<stop  offset="1" style="stop-color:#00A6BB"/>
				</linearGradient>
				<path class="st26" d="M69,1154.5c125.6-53.9,249.6-111.9,378.3-158c36.3-13,73.1-24.9,110.9-32.7c41.9-8.6,84-16.1,126.2-23.1
					c85.4-14.2,170.9-25.7,257.2-32c83.3-6.1,169.1-7,250.3-28.1c35.9-9.3,70.4-23.9,98.7-48.4c26.2-22.7,45.6-51.7,62-82
					c36.7-67.5,53.2-144.7,96-209.1c42.6-64.1,104.2-114.4,165.4-159.9c63-46.8,129.3-88.9,193.8-133.5
					c58.4-40.3,117.1-82.4,166.1-134c10.1-10.7,19.7-21.8,28.7-33.4c0.6-0.8-0.7-1.5-1.3-0.8c-43.5,56.4-101.3,100.8-158.7,142
					C1780,266.5,1714.9,307.7,1652,352c-61.9,43.6-123.8,90.2-173.6,147.8c-22.8,26.4-42,55.2-57,86.8c-16.3,34.2-28.7,70-43,105
					c-29,70.9-68.9,141.1-142.4,172.6c-39.7,17-83.5,24.6-126.2,29.6c-41.6,4.9-83.6,7.4-125.4,10.2c-83.9,5.8-167.1,14.2-250.3,27
					c-79.6,12.3-161.1,23.5-238.3,47.4c-70.3,21.8-138.7,50.1-206.5,78.7c-62,26.1-123.5,53.4-185.1,80.3c-12,5.2-24,10.5-36,15.6
					C67.3,1153.5,68.1,1154.8,69,1154.5L69,1154.5z"/>
			</g>
		</g>
		<g>
			<g>
				<linearGradient id="SVGID_29_" gradientUnits="userSpaceOnUse" x1="73.2971" y1="623.0427" x2="2008.7971" y2="623.0427">
					<stop  offset="0" style="stop-color:#A1D1DC"/>
					<stop  offset="0.5" style="stop-color:#6CBBCB"/>
					<stop  offset="1" style="stop-color:#00A6BB"/>
				</linearGradient>
				<path class="st27" d="M74.2,1159.7c133.4-52,261.4-117,396.6-164.4c75.4-26.5,153.3-40.5,232.2-52
					c100.6-14.7,202-23.5,303.5-30.2c48-3.2,96.3-4.5,144.2-9.4c41.1-4.2,82.8-12.1,119.7-31.6c67.1-35.5,98.5-105.3,122.8-173.5
					c13-36.4,24.7-73.4,40.7-108.8c13.6-30,30.7-57.6,51.8-82.9c44.3-53.3,100.1-96.5,156.3-136.5c59.8-42.6,121.9-81.8,182.3-123.5
					c55.4-38.2,110.7-78.4,157-127.5c9.6-10.2,18.8-20.9,27.4-32.1c0.6-0.8-0.7-1.5-1.3-0.8c-40.5,52.5-93.6,94.5-147,133.1
					c-59.3,42.8-121.1,81.9-181.4,123.2c-56.9,38.9-113.5,79.6-162.4,128.4c-21.7,21.6-41.9,45.1-58.6,70.8
					c-18.6,28.7-31.8,60.5-43.6,92.5c-25.6,69.5-44.4,147.7-98.3,201.9c-65.8,66.3-164.6,66.3-251.5,71.5
					c-99.9,5.9-199.9,13.1-299.3,25.4c-49.2,6.1-98.3,13.4-147.1,22.3c-35.4,6.5-70.5,13.5-104.9,24
					c-137.9,42.3-268,107.5-400.9,162.9c-12.8,5.3-25.6,10.6-38.5,15.6C72.9,1158.6,73.3,1160.1,74.2,1159.7L74.2,1159.7z"/>
			</g>
		</g>
	</g>
	<g class="st28">
		<g>
			<g>
				<path class="st29" d="M-43.3-151.8c13.2-66.6,96.8-91.7,153.4-106.3c35.2-9.1,71-15.6,106.8-21.9c15.6-2.7,31.1-5.4,46.7-8.4
					c26.3-5,52.5-7.3,79.2-9.3c48.8-3.6,95.6-11.4,135.3-42c16-12.4,30.1-27.1,42.2-43.4c13.5-18.1,21.9-37.7,32.5-57.4
					c12-22.5,44.8-28.1,67.4-32.4c29.3-5.6,59.3-8.1,88.1-16c17.4-4.8,40.2-12.9,43.4-33.4c1.4-9.3,1-19,1.7-28.4
					c1-13.8,2.6-27.6,6.1-41c7.2-28,23.5-49.8,47.2-66.1c19.9-13.7,42.5-22.7,63.1-35.1c16.8-10.1,32.5-21.9,48.1-33.7
					c12.2-9.3,24.6-18.4,38.5-24.9c19.2-9,40.2-12.5,61.2-13.5c23.7-1.1,47.1-0.6,70.6-4.3c21.4-3.4,42.3-9.3,62.8-16.3
					c42.9-14.7,84.5-31.4,129.4-39.7c97.9-18.2,183.1-69.3,255.7-136.2c49.4-45.5,101.8-87.7,152.9-131.4
					c56-47.9,113.3-95.9,163-150.5c8-8.8,15.7-17.8,22.8-27.3c0.6-0.8-0.7-1.5-1.3-0.8c-17.8,24.2-39.6,45.6-61.2,66.3
					c-27.6,26.6-56.3,52.1-85.2,77.4c-55.6,48.5-112.7,95.2-168.2,143.8c-30.5,26.7-59.8,54.3-93.1,77.6
					c-41.6,29.1-87.2,53-135.9,67.8c-24.9,7.6-50.5,11.1-75.8,17.3c-21.6,5.3-42.8,12.3-63.7,19.8c-41.4,15-82,29.9-126.3,33.5
					c-24,2-48,0.1-71.8,4.1c-16.6,2.8-32.5,8.2-47.1,16.6c-13.6,7.9-25.8,17.8-38.4,27.2c-17.1,12.9-34.8,24.8-53.7,34.9
					c-20.5,10.9-41.6,20.3-59.5,35.4c-18,15.3-29.6,34.8-35.5,57.6c-5.8,22.6-5,45.5-7.7,68.4c-1.4,11.7-9.6,19.5-19.5,24.8
					c-24.6,13.1-55,15.4-82.1,19.6c-26.3,4.1-55.7,7.3-79.2,20.7c-9.4,5.4-15.8,12.2-20.2,22.1c-9.3,21.1-21,41.2-35.5,59.2
					c-31.5,39.3-73.5,64.4-123.2,72.8c-28.4,4.8-57.3,5.3-85.9,8.2c-19.4,1.9-38.3,5.8-57.4,9.3c-34.7,6.3-69.6,11.9-104.1,19.4
					C108.6-260,73.9-251,41.3-236.9c-26.5,11.4-53.4,26.6-70.7,50.2c-7.6,10.3-12.8,22-15.2,34.5C-44.9-151.3-43.5-150.9-43.3-151.8
					L-43.3-151.8z"/>
			</g>
		</g>
		<g>
			<g>
				<path class="st29" d="M-37.9-146.6c7-30.3,30.4-52,56.3-67.3c30.3-18,64.4-29.1,98.3-38.1c35-9.3,70.5-16.2,106.1-22.8
					c15.6-2.9,31.2-5.7,46.8-8.8c25.9-5.1,51.8-8.1,78.1-10.2c49.3-4,97.1-10.9,138.1-40.7c17.7-12.9,33.3-28.5,46.7-45.8
					c13-16.7,21.6-35,32.3-53c12.9-21.7,45.1-27.1,67.8-31.3c29.1-5.5,58.9-7.9,87.7-15.4c17.1-4.4,40.6-11.8,45.3-31.4
					c2-8.1,1.8-17.1,2.7-25.4c1.4-13.3,3.1-26.7,6.6-39.7c7-26.4,21.6-47.4,43.6-63.5c20.4-14.9,44-24.1,65.6-36.8
					c17.5-10.3,33.6-22.4,49.7-34.7c12.6-9.7,25.3-19.2,39.7-26c19-9,39.9-12.8,60.8-14c23.6-1.4,46.7-1.8,70-6.5
					c20.3-4.1,40.1-10.4,59.5-17.7c42.1-15.8,82.9-32.8,127.1-42c96.1-20,179.6-73.7,251.4-138.9c49.7-45.1,102.3-87.1,153.4-130.5
					c55.5-47.2,112.2-94.6,161.6-148.5c8.2-8.9,16.1-18.2,23.3-27.9c0.6-0.8-0.7-1.5-1.3-0.8c-17.7,24-39.3,45.3-60.8,65.9
					c-27.3,26.2-55.6,51.4-84.2,76.2c-55.9,48.5-113.4,95.2-169.4,143.7c-30.4,26.3-59.6,53.6-92.5,76.9
					c-40.9,29-85.4,53.4-133,69.4c-23.6,7.9-47.9,12.2-72,18.4c-22.4,5.7-44.1,13.4-65.6,21.7c-40.6,15.8-80.5,32-124.2,36.8
					c-23.1,2.5-46.4,1.2-69.3,5.4c-16.3,3-32,8.6-46.3,17c-14,8.2-26.6,18.6-39.5,28.4c-17.4,13.2-35.6,25.3-55,35.4
					c-21,11-42.5,20.7-60.4,36.6c-16.9,15-27.8,34-33.5,55.8c-2.6,10.1-4.3,20.4-5.6,30.8c-1.4,11.2-1,23.4-3.7,34.3
					c-2.6,10.6-11.3,17.4-20.6,22c-24.9,12.4-54.9,14.7-82,18.8c-26.5,4-55.9,7.1-79.8,20.3c-9.4,5.2-16,11.8-20.7,21.3
					c-10.3,20.8-22.8,40.4-38,58c-32.9,38.2-75.5,62.2-125.3,70.4c-28.7,4.7-57.8,5.5-86.7,8.8c-19.3,2.2-38.3,6.3-57.3,9.9
					c-35,6.6-70,12.7-104.8,20.6c-34.3,7.8-68.6,17-101,31c-26.3,11.4-53,26.3-70.9,49.3c-7.9,10.1-13.5,21.6-16.4,34.1
					C-39.5-146.1-38.1-145.7-37.9-146.6L-37.9-146.6z"/>
			</g>
		</g>
		<g>
			<g>
				<path class="st29" d="M-32.4-141.4c8-29.6,31.6-50.7,57.2-65.8c30.1-17.8,63.9-29.1,97.5-38.3c35.5-9.8,71.5-17.1,107.6-24.2
					c40.9-8,81.2-16.4,122.8-20.1c49.3-4.4,97.7-10.4,139.7-38.6c36.5-24.5,61.3-58.2,83.5-95.4c13-21.7,42.8-27.3,65.7-31.7
					c29.7-5.7,60-8.1,89.4-15c17.1-4,41.4-10.4,48.5-28.8c2.8-7.4,2.9-16.2,4-24c1.7-12.3,3.6-24.7,6.8-36.7
					c7.1-26.8,21.7-48.3,44.1-64.6c19.4-14.1,41.7-23,62.4-34.8c17.3-9.9,33.3-21.4,49-33.6c13.5-10.4,26.8-21,42-28.8
					c17.9-9.2,37.5-13.8,57.4-15.8c23.5-2.3,46.7-2.7,69.8-7.9c20.4-4.5,40.1-11.4,59.4-19.3c40.9-16.7,80.5-34.5,123.8-44.7
					c95-22.2,177.8-76.9,249.6-141.4c50.3-45.1,103.4-87.2,155-130.8c55.5-46.9,112.3-94,161.4-147.8c7.9-8.7,15.6-17.6,22.6-27.1
					c0.6-0.8-0.7-1.5-1.3-0.8c-17.7,23.9-39.1,45-60.5,65.5c-26.9,25.8-54.9,50.6-83.2,74.9c-56,48.3-113.6,94.8-169.8,142.9
					c-30.8,26.3-60.4,53.6-93.3,77.3c-41.1,29.5-85.6,54.8-133.3,71.9c-23.1,8.3-47,13-70.5,19.7c-21.8,6.2-43,14.3-63.9,23.1
					c-39.1,16.5-77.4,33.4-119.8,39.2c-22.9,3.1-46.1,2.3-68.8,7.2c-16.4,3.6-31.9,9.8-46.2,18.7c-14.3,8.9-27.2,19.8-40.6,29.9
					c-17.7,13.3-36.2,25.2-56,35.1c-20.4,10.3-41.1,20.4-58.2,35.9c-16.5,15-26.9,34.2-32.5,55.6c-2.9,11-4.7,22.3-6.3,33.6
					c-1.2,8.7-1.2,18.8-4.5,27.1c-4.2,10.7-15.1,16.9-25.2,21c-25.8,10.4-54.8,12.8-82,16.9c-26.2,3.9-55.5,7.1-78.9,20.7
					c-9.4,5.5-14.8,12.3-20,21.7c-11.4,20.4-25.1,39.5-41.2,56.5c-35.6,37.7-80.1,59.3-131.2,66.7c-27.7,4-55.8,5.1-83.5,8.8
					c-19,2.5-37.7,6.8-56.5,10.5c-34.9,6.9-69.8,13.3-104.4,21.5c-34,8.1-68,17.5-100.1,31.5C27.7-212.3,0-196.8-18.3-173
					c-7.2,9.3-12.5,19.8-15.5,31.2C-34.1-140.9-32.7-140.5-32.4-141.4L-32.4-141.4z"/>
			</g>
		</g>
		<g>
			<g>
				<path class="st29" d="M-27-136.2c8.9-28.9,32.7-49.4,58-64.3c30.7-18,64.9-29.6,99-39.2c34.5-9.8,69.5-17.3,104.6-24.4
					c40.9-8.4,81.3-17.5,122.9-21.6c49.3-4.9,98.1-10,141.2-36.7c35.9-22.3,65-54.5,87.1-90.4c14.2-23.2,41.9-29.3,67.1-34.1
					c29.7-5.7,60-8,89.6-14.5c17.7-3.9,43.4-9.8,51.4-28.5c2.7-6.3,3.2-13.6,4.5-20.3c2.2-12.2,4.4-24.5,7.9-36.5
					c7.4-25.5,21.4-46.2,42.8-62c20-14.7,43.1-23.8,64.5-36c16.7-9.5,32.3-20.7,47.5-32.5c13.2-10.3,26.3-20.9,41-29.1
					c18.6-10.3,39.2-15.7,60.3-18.1c22.4-2.6,44.3-3.8,66.2-9.4c18.6-4.8,36.6-11.6,54.2-19.3c41.6-18.2,81.6-37.4,125.8-49
					c92.7-24.4,173.8-80.2,244.7-143c50.9-45.1,104.5-87.2,156.6-130.9c55.1-46.2,111.3-92.6,159.9-145.7c8.1-8.9,16-18,23.1-27.7
					c0.6-0.8-0.7-1.5-1.3-0.8c-17.6,23.7-38.8,44.7-60.1,65c-27.2,26-55.5,50.9-84.1,75.4c-55.7,47.7-113,93.6-169,141
					c-30.6,25.9-60.2,52.9-92.7,76.5c-40.8,29.7-84.8,55.7-132,73.9c-22.9,8.9-46.5,14.3-69.9,21.5c-20.6,6.4-40.5,14.5-60.1,23.4
					c-38.7,17.5-76.6,36.1-119,43.1c-22.7,3.8-45.9,3.4-68.4,9c-15.8,4-30.7,10.5-44.4,19.3c-14.6,9.4-27.8,20.7-41.6,31.1
					c-17.5,13.1-36,24.7-55.5,34.5c-20.6,10.3-41.5,20.6-58.7,36.4c-15.6,14.4-25.5,32.7-31.4,53c-3.2,11-5.3,22.2-7.3,33.4
					c-1.5,8.1-1.9,17.2-5.6,24.6c-5.1,10.2-16.4,15.9-26.6,19.7c-26.5,9.9-55.8,12.3-83.6,16.3c-25.9,3.8-54.6,7-77.7,20.2
					c-11.2,6.4-16.4,14.9-23.2,25.5c-12.3,19-26.5,36.8-42.8,52.5c-37.3,35.9-82.3,55.6-133.3,62.7c-26.7,3.7-53.7,5.1-80.4,8.9
					c-19.9,2.8-39.5,7.5-59.2,11.6c-33.9,7-68,13.6-101.6,21.8c-34.5,8.4-68.9,18.3-101.6,32.4c-27,11.7-54.5,26.9-73.4,50.1
					c-7.5,9.2-13.2,19.5-16.7,30.8C-28.7-135.7-27.3-135.3-27-136.2L-27-136.2z"/>
			</g>
		</g>
		<g>
			<g>
				<path class="st29" d="M-21.6-131c9.8-28.2,33.8-48.1,58.8-62.7c30.5-17.8,64.3-29.6,98.1-39.4c34.9-10.2,70.5-18.2,106.1-25.8
					c39.4-8.4,78.6-17.9,118.7-22.4c48.4-5.4,96.9-9.2,140.5-33c37.3-20.4,68.3-50.9,92.8-85.4c8.3-11.7,15.1-20.3,28.4-26.5
					c12.5-5.8,26.1-9,39.5-11.6c29.6-5.8,59.7-8.1,89.3-13.9c18.6-3.6,44.9-8.5,56-26c3.2-5,4.2-10.9,5.5-16.6
					c2.6-11.1,4.9-22.3,8-33.2c7-24.8,19.1-46.1,39.4-62.3c20-15.9,43.5-25.4,65.7-37.6c17.8-9.8,34.3-21.3,50.3-33.7
					c13.4-10.4,26.5-21.4,41.2-30c16.5-9.7,34.7-15.7,53.6-18.9c22.9-3.9,45.6-5,68.1-11.3c18.5-5.1,36.2-12.4,53.5-20.6
					c39.8-18.8,78-39.2,120.5-51.5c93-26.9,173.9-83.2,246-146.3c50.9-44.5,104.2-86.2,156.2-129.4c55.3-46,111.6-92.3,160.4-145.4
					c8.3-9.1,16.4-18.4,23.7-28.3c0.6-0.8-0.7-1.5-1.3-0.8c-17.7,23.8-39.1,45-60.6,65.4c-27.3,26-55.6,50.8-84.3,75.1
					c-55.6,47.3-112.9,92.8-168.8,139.7c-31.3,26.3-61.7,53.5-94.8,77.7c-40.7,29.7-84.4,56-131.2,75c-22.3,9.1-45.5,14.9-68.2,22.7
					c-19.7,6.8-38.7,15.3-57.4,24.4c-37.1,18.1-73.4,37.4-114.4,45.4c-22.3,4.4-45.2,4.6-67.2,10.8c-15.7,4.4-30.4,11.4-43.9,20.5
					c-13.9,9.4-26.7,20.3-40.1,30.4c-18.4,13.8-37.8,25.8-58.5,35.9c-20.1,9.9-40.4,20.3-57.1,35.7c-16.3,15.1-26.1,34.2-32.2,55.3
					c-3,10.5-5.3,21.1-7.7,31.7c-1.7,7.3-2.7,15-7.3,21.1c-6.8,9-18.1,13.8-28.5,17.2c-27.7,9.1-57.5,11.4-86.3,15.5
					c-25.4,3.7-54.1,7-76.3,20.8c-11.1,6.9-16.7,17.2-24.2,27.5c-13.6,18.4-29.1,35.6-46.5,50.6c-17.7,15.3-37.5,28.3-59,37.7
					c-25.6,11.3-53.2,16.6-80.9,20c-24.9,3-49.9,4.9-74.6,8.8c-18.6,3-37,7.6-55.4,11.5c-34.5,7.4-69.1,14.5-103.3,23.2
					c-34.2,8.7-68.2,18.7-100.6,32.8c-26.9,11.7-54.2,26.7-73.6,49.2c-7.8,9-13.9,19.2-17.8,30.4C-23.3-130.5-21.9-130.1-21.6-131
					L-21.6-131z"/>
			</g>
		</g>
		<g>
			<g>
				<path class="st29" d="M-16.2-125.8c10.9-28,35.6-47.4,61-61.9c30.3-17.3,63.6-29.1,96.9-39.2c35.2-10.6,71.1-19,107-27
					c38.6-8.6,77-18.4,116.3-23.2c48.6-6,97.6-9.4,142.1-31.9c37.8-19.2,69.9-48.3,96.1-81.3c8.8-11.1,15.8-20.6,28.9-26.8
					c12.5-5.9,26.2-9.2,39.7-11.8c29.4-5.8,59.3-8,88.7-13.3c19.5-3.5,46.4-7.7,59.4-24.6c8.9-11.6,10.3-29.4,14.4-43.1
					c7.2-24,17.9-45.4,37.4-61.9c19.1-16.2,42-26,64-37.4c18.7-9.7,36.1-21.3,52.7-34.2c29.2-22.6,55.8-44,92.9-52.1
					c22.6-4.9,45.5-6.3,67.8-13.1c17.6-5.4,34.6-12.8,51-21c39.5-19.9,77.1-41.9,119.6-55.4c91.9-29.3,171.9-86.2,244.2-148.7
					c51.5-44.5,105.3-86.2,157.8-129.6c55.3-45.7,111.7-91.7,160.2-144.7c8.1-8.8,15.8-17.9,23-27.4c0.6-0.8-0.7-1.5-1.3-0.8
					c-17.9,24-39.4,45.2-61,65.8c-27,25.6-55,50-83.4,74c-56.2,47.5-114,92.9-170.5,139.9c-31.5,26.2-62.2,53.3-95.3,77.6
					c-40.2,29.4-83,55.9-128.8,75.7c-22.5,9.7-46.1,16.2-69,25c-19,7.3-37.4,16.2-55.4,25.7c-37,19.5-73.2,39.9-114.7,48.4
					c-22,4.5-44.3,5.6-65.6,13.2c-14.7,5.2-28.2,12.9-40.8,22c-14.3,10.3-27.6,21.8-41.8,32.2c-19.1,13.9-39.5,24.9-60.7,35.4
					c-19.7,9.8-39.5,20.9-54.9,37c-14.2,14.8-22.4,33.3-28.3,52.6c-4.5,14.7-5.8,35.2-16.9,46.6c-8.1,8.3-19.9,12.6-30.8,15.7
					c-28.4,8.3-58.5,10.4-87.7,14.6c-24.8,3.6-53,7-74.6,20.8c-12.2,7.8-19.4,20.9-28.6,31.7c-14.8,17.5-31.3,33.7-49.6,47.5
					c-40.9,31.1-87.3,45.2-137.8,51.4c-25,3.1-50.1,5.2-75,9.6c-18.4,3.3-36.5,7.9-54.7,12c-34.5,7.7-69.1,15.2-103.3,24.2
					c-34,9-67.9,19.3-100.1,33.5c-27,11.9-54.5,26.9-74.3,49.4c-7.5,8.5-13.5,18-17.6,28.6C-18-125.3-16.5-124.9-16.2-125.8
					L-16.2-125.8z"/>
			</g>
		</g>
		<g>
			<g>
				<path class="st29" d="M-10.8-120.5c11.5-26.6,35.4-45.3,59.9-59.5c30.6-17.7,64.3-29.9,97.9-40.4c34.6-10.7,69.8-19.4,105-27.6
					c36.7-8.6,73.5-18.5,110.9-23.9c49.2-7.2,99.3-9.2,145.4-29.7c39.5-17.5,73.8-45.5,102.5-77.5c9.6-10.7,17.1-21.8,30.2-28.5
					c11.9-6.1,25.2-9.5,38.3-12.2c29.4-6.1,59.4-8.3,89-13c20.9-3.3,48.2-6.9,64-22.7c9.2-9.2,11.6-23.9,15.5-35.7
					c7.9-23.9,17.6-46.2,36.8-63.3c18.1-16.1,40.1-26.4,61.7-37c19.5-9.6,37.7-21.2,55-34.3c29.1-22.1,55.1-45.5,91.3-55.2
					c21.8-5.9,44.4-7.6,66-14.7c18.2-5.9,35.5-14.1,52.3-23.2c38.4-20.8,74.7-43.7,116.2-58.2c90.8-31.8,169.9-89.2,242.4-151.1
					c51.8-44.2,105.7-85.8,158.4-128.9c55.2-45.2,111.3-90.9,159.7-143.5c8.3-9,16.2-18.3,23.5-28.1c0.6-0.8-0.7-1.5-1.3-0.8
					c-17.8,23.8-39.1,44.9-60.6,65.3c-26.9,25.5-55,49.8-83.4,73.7c-55.6,46.7-112.9,91.5-169,137.5c-32.2,26.4-63.5,53.9-97,78.7
					c-40,29.6-82.4,56.6-127.7,77.5c-22,10.2-45.1,17.3-67.5,26.6c-19,7.9-37.2,17.4-55.1,27.6c-35.4,20.2-70.1,41.1-110.1,50.8
					c-21.9,5.3-44.2,6.9-65.3,15.3c-14.8,5.9-28.3,14.2-40.9,23.8c-13.9,10.5-27.2,21.9-41.3,32.1c-19.4,14-40.2,24.6-61.5,35.3
					c-19.3,9.7-38.6,20.7-53.6,36.4c-13.9,14.6-22,32.8-28.4,51.6c-4.9,14.5-7.4,33.1-19.9,43.3c-9.1,7.4-20.9,11.2-32,14.1
					c-28.6,7.5-58.5,9.6-87.7,13.7c-24.9,3.5-53.4,6.9-74.9,21.1c-12,8-20.1,21.1-29.9,31.5c-15.2,16.3-31.9,31.3-50.1,44.2
					c-42.4,30.2-90,43.5-141.2,49.8c-24.6,3-49.2,5.6-73.6,10.2c-18,3.4-35.8,8.1-53.7,12.3c-34.3,7.9-68.6,15.7-102.5,24.9
					c-33.7,9.2-67.3,19.5-99.4,33.5C56-186.8,28.5-172.2,7.8-150.6c-8.3,8.6-15.2,18.4-19.9,29.4C-12.5-120.3-11.2-119.6-10.8-120.5
					L-10.8-120.5z"/>
			</g>
		</g>
		<g>
			<g>
				<path class="st29" d="M-5.4-115.3c12.6-26.2,36.9-44.4,61.6-58.5c30.9-17.6,64.7-30,98.5-40.7c34.7-11,69.9-19.9,105.3-28.5
					c36.9-8.9,73.8-19.2,111.3-25c48.4-7.5,97.8-9.8,143.5-28.8c39.8-16.5,74.8-42.9,105.1-73.4c10.5-10.6,19.2-22.5,32.8-29.3
					c12-6,25.3-9.3,38.3-11.9c30-6,60.7-8.1,91-12.8c21.2-3.3,48.6-6.7,64.9-22.5c9.4-9.2,12.8-24.2,17.4-36.1
					c8.5-22,18.8-42.4,37.2-57.9c18.3-15.5,40.1-25.5,61.5-36.1c19.5-9.6,37.8-21.2,55-34.4c29.1-22.3,55.2-46.1,91.3-56.6
					c21.1-6.1,42.8-8.7,63.5-16.4c17.4-6.5,33.9-15,49.8-24.4c36.7-21.6,71.5-45,111.5-60.3c89.6-34.3,167.8-92.2,240.6-153.6
					c52-43.9,106.2-85.2,159-128.2c55-44.7,111-90.1,159.2-142.3c8.5-9.2,16.6-18.7,24.1-28.7c0.6-0.8-0.7-1.5-1.3-0.8
					c-17.9,24-39.4,45.2-61.1,65.7c-27,25.4-55.1,49.6-83.6,73.4c-55.8,46.6-113.3,91.1-169.7,136.9c-70,56.9-138.7,115-220.2,155.4
					c-20.6,10.2-42.1,17.9-63.3,27c-19.5,8.4-38,18.6-56.1,29.6c-34.7,21-68.2,43.6-107.7,54.8c-21.3,6-43.2,8.3-63.7,16.9
					c-15.1,6.4-28.8,15.2-41.7,25.2c-14.3,11-28,22.9-42.7,33.4c-18.6,13.2-38.5,23.3-58.8,33.4c-19.1,9.5-38.4,20.1-53.6,35.3
					c-14,13.9-22.5,31.4-29.6,49.6c-5.6,14.3-9.1,31.8-21.9,41.5c-9.3,7-21,10.6-32.1,13.4c-28.7,7.2-58.5,9.2-87.7,13.2
					c-25.2,3.4-53.5,6.6-75.6,20.2c-13,7.9-22.2,21.3-33,31.8c-16.3,15.8-33.8,30.4-52.8,42.9c-43.7,28.8-91.8,40.9-143.2,47.4
					c-77.1,9.7-153.1,28.3-227.9,49.2c-33.8,9.5-67.4,20.1-99.6,34.2c-27,11.8-54.3,26.2-75.4,47.1c-8.6,8.5-15.9,18.1-21.2,29
					C-7.1-115.2-5.8-114.4-5.4-115.3L-5.4-115.3z"/>
			</g>
		</g>
		<g>
			<g>
				<path class="st29" d="M0-110.1c13.7-25.7,38.4-43.5,63.2-57.4c30.5-17.1,63.5-29.5,96.6-40.2c35.2-11.4,71-20.9,106.8-29.9
					c36.2-9.1,72.5-19.5,109.3-25.7c48.5-8.2,98.3-10.5,144.6-28.4c38.5-14.9,73.1-38.4,103.9-65.8c12-10.7,22.5-24.4,36.8-32.1
					c11.7-6.3,24.9-9.8,37.9-12.5c29.7-6.2,60-8.2,90-12.4c22.8-3.1,50.4-6.1,69.3-20.7c10.1-7.8,14.4-20.4,19.4-31.7
					c8.9-20.2,18.2-40.1,34.9-55.2c17.6-16.1,39.4-26.8,60.7-37c20-9.6,39-20.8,56.8-34.1c29.6-22.2,55.6-47.9,91.4-60.1
					c20.4-6.9,41.7-10,61.7-18.1c17.4-7,33.8-16.2,49.6-26.3c36-22.8,70-47.1,109.6-63.7c87.4-36.5,164.4-94.5,236.6-154.8
					c52.5-43.8,107-85.1,160.3-128.1c55.2-44.5,111.2-89.6,159.4-141.9c8.4-9.1,16.5-18.6,24-28.5c0.6-0.8-0.7-1.5-1.3-0.8
					c-39.4,52.6-92.9,95.7-143.2,137.4c-56.1,46.6-114,91-170.8,136.7c-70.4,56.7-139.3,114.9-219.8,157.1
					c-20.5,10.7-41.8,19.1-62.7,28.9c-19.4,9-37.7,20-55.5,31.7c-33.6,22-66.1,45.3-104.9,57.3c-19.4,6-39.4,9-58.1,17.3
					c-15.4,6.9-29.3,16.4-42.5,26.8c-15.4,12.2-30.3,25.1-46.5,36.2C999-573.2,979-563.8,959-553.7c-19.1,9.6-38.3,20.5-53.1,36.2
					c-14.2,15-22.3,33.9-30.5,52.6c-5.8,13.1-10.7,25-23.5,32.4c-10.6,6.1-22.7,9.3-34.6,11.8c-29.3,6.3-59.4,8.2-89.1,12.3
					c-24.5,3.4-52.6,6.8-73.6,21.1c-13.1,9-23.7,22.3-35.7,32.7c-17.2,15-35.6,28.7-55.3,40.3c-43.2,25.5-90.1,36.1-139.4,42.6
					c-77.1,10.1-153.1,29.8-227.7,51.3c-33.9,9.8-67.6,20.7-99.9,34.8c-27.2,11.9-54.5,26.2-76.2,46.8c-8.6,8.2-16.1,17.4-21.7,28
					C-1.7-110-0.4-109.2,0-110.1L0-110.1z"/>
			</g>
		</g>
		<g>
			<g>
				<path class="st29" d="M5.5-104.9C20-129.7,44.7-147,69.4-160.8c31-17.3,64.6-30,98.2-41.1c34.9-11.5,70.3-21.2,105.9-30.5
					c36.3-9.5,72.7-20.1,109.6-26.7c47-8.5,95.3-11.1,140.7-26.9c40-13.9,76.3-36.6,109.1-63.1c13.1-10.6,25-24.5,40-32.4
					c11.5-6,24.3-9.4,36.9-12c30.6-6.3,61.9-8.2,92.8-12.3c22.9-3,49.9-5.9,69.4-19.7c10.1-7.1,15.1-18.3,20.6-29.1
					c9.8-19.3,19.4-38.4,35.8-53c17.6-15.7,39.2-26.2,60.3-36.2c19.7-9.4,38.3-20,55.8-33c30.2-22.4,56.5-49.4,92.4-62.9
					c19.2-7.2,39.3-10.9,58.2-19.3c17.5-7.8,33.9-17.8,49.7-28.7c33.9-23.3,66-47.9,103.7-65c86.2-39.2,162.7-97.1,235.3-157.1
					c53-43.8,108-85.1,161.6-128c55.3-44.3,111.5-89.2,159.6-141.4c8.4-9.1,16.4-18.5,23.9-28.4c0.6-0.8-0.7-1.5-1.3-0.8
					c-39.6,52.8-93.2,95.8-143.8,137.5c-56.4,46.4-114.5,90.6-171.6,136.1c-70.4,56.1-139.1,113.9-218.3,157.7
					c-20,11.1-41,20-61.4,30.3c-18.1,9.2-35.3,20.2-51.9,31.9c-32.4,22.7-63.6,47.1-101.3,60.6c-19.7,7.1-40.1,10.7-58.9,20
					c-14.8,7.3-28.1,16.9-40.8,27.3c-15.4,12.5-30.4,25.5-46.8,36.7c-18.5,12.6-38.5,21.8-58.5,31.8c-18.9,9.4-38,20.1-52.8,35.4
					c-13.7,14.1-22.1,31.7-31,49c-6.5,12.7-12.2,23.8-25,30.8c-11.1,6-23.7,9.2-36,11.6c-29.8,6-60.2,7.8-90.3,11.8
					c-24.7,3.3-52.9,6.7-74.1,21.1c-14.1,9.6-26.1,22.8-39.6,33.4c-18,14.1-37,27-57.1,37.8c-43.1,23.3-89.2,32.8-137.3,39.5
					c-77.1,10.7-153.2,31.2-227.9,53.4c-33.9,10.1-67.7,21.2-100.1,35.5c-27.3,12-54.7,26.3-76.9,46.6c-8.7,7.9-16.3,16.8-22.2,26.9
					C3.7-104.8,5-104.1,5.5-104.9L5.5-104.9z"/>
			</g>
		</g>
		<g>
			<g>
				<path class="st29" d="M10.9-99.7c15.7-24.4,41-41.4,66-55.1c30.8-16.8,63.8-29.5,96.9-40.7c34.8-11.8,70.1-21.8,105.5-31.3
					c35.9-9.7,71.9-20.5,108.5-27.6c46.1-8.9,93.4-11.9,138.4-25.9c41.7-13,80-34.9,115-60.8c13.3-9.9,25.6-22.5,40.1-30.7
					c11.3-6.4,24.2-9.9,36.9-12.6c30.8-6.6,62.3-8.4,93.5-12.2c24.1-2.9,51.3-5.6,72.5-18.4c10.2-6.2,15.9-15.5,21.9-25.6
					c10.8-18.3,20.7-37.1,36.9-51.5c17.4-15.4,38.8-25.8,59.6-35.7c20.6-9.8,40.2-20.6,58.5-34.3c28.9-21.6,54.1-48,87.6-62.6
					c19.2-8.4,39.7-12.8,58.6-22c17.1-8.3,32.9-18.9,48.1-30.1c33.6-24.9,65.4-50.5,103.1-69.1c83.2-41,157.7-98.5,229.2-157
					c53.3-43.6,108.6-84.8,162.5-127.6c55.5-44.1,111.9-88.9,160.2-141.1c8.6-9.3,16.9-18.9,24.5-29c0.6-0.8-0.7-1.5-1.3-0.8
					c-39.8,52.9-93.6,96-144.5,137.6c-56.6,46.3-115,90.2-172.4,135.6c-70.3,55.5-139,113-216.7,158.2
					c-18.7,10.9-38.3,20.1-57.3,30.4c-18.2,9.8-35.3,21.5-51.9,33.9c-31.7,23.8-62.1,49.6-99.4,64.4c-18.9,7.5-38.5,11.9-56.5,21.6
					c-14.7,7.9-27.8,18-40.6,28.6c-15.2,12.7-30.2,25.6-46.7,36.7c-18.8,12.7-39.2,21.8-59.4,31.9c-18.7,9.4-37.7,19.9-52.4,35.1
					c-13.8,14.2-22.5,31.8-32.6,48.5c-7.1,11.8-14.2,20.4-26.9,26.3c-11.9,5.5-24.9,8.3-37.8,10.6c-30.7,5.5-61.8,7.1-92.7,11.3
					c-24.2,3.3-51.9,7-72.2,21.8c-15.6,11.5-30.1,24.4-46.1,35.5c-17.7,12.3-36.1,23.5-55.5,32.9c-43.6,21.4-89.9,29.7-137.6,36.7
					c-76.1,11.1-151.3,32.6-224.8,55c-34.2,10.4-68.2,21.9-100.9,36.4c-27,11.9-53.9,25.9-76.3,45.4C24-119.1,16-110.4,9.6-100.5
					C9.1-99.6,10.4-98.9,10.9-99.7L10.9-99.7z"/>
			</g>
		</g>
		<g>
			<g>
				<path class="st29" d="M16.3-94.5C32.8-118.1,58-134.5,83-148c31.4-17,64.9-30,98.6-41.6c34.4-11.9,69.4-22.1,104.5-31.9
					c35.3-9.8,70.7-20.7,106.6-28.2c46.3-9.7,93.8-12.9,139.3-26.1c41.2-11.9,79.6-32.1,115.2-55.9c14.8-9.9,28.6-22.3,44-31.1
					c11.2-6.4,23.9-10,36.4-12.7c30.6-6.7,62-8.4,93.1-11.9c25.1-2.8,52.7-5.3,75.5-17.2c10.4-5.4,17.1-13.4,23.7-23
					c11.7-17,21.9-35.2,37.7-49c17.6-15.4,39.2-25.8,60.2-35.8c20.2-9.6,39.6-19.9,57.7-33.2c29.3-21.6,54.3-48.8,87.4-64.9
					c18.8-9.2,39.1-14.3,57.6-24.3c16-8.6,30.7-19.2,44.9-30.5c32.7-25.9,63.5-52.9,100.5-72.6c81.1-43.3,154.6-100.5,225.9-158.1
					c54.4-44,110.7-85.7,165.7-129c55.3-43.6,111.4-88,159.3-139.8c8.6-9.3,16.8-18.8,24.4-28.9c0.6-0.8-0.7-1.5-1.3-0.8
					c-40,53-93.9,96.2-145.1,137.7c-56.3,45.7-114.3,89-171.4,133.6c-70.7,55.3-139.6,112.8-216.3,159.8
					c-35.1,21.5-71.5,39.4-103.9,65.2c-30.2,24.1-58.8,50.8-94.1,67.5c-18.9,8.9-39.1,14-57.3,24.4c-15,8.6-28.4,19.3-41.5,30.5
					c-15.6,13.3-31.2,26.6-48.4,37.9c-19.1,12.6-40,21.5-60.3,31.8c-18.6,9.4-37.4,19.9-51.9,35.1c-12.9,13.5-21.9,29.8-32.6,45
					c-16.1,22.7-40.8,28.9-67.2,33.3c-30.8,5.1-62.1,6.6-93,10.8c-24.8,3.3-52.4,7.2-73.1,22.3c-34.3,24.9-68.8,48.9-107.8,66.2
					c-42.9,19-88.1,26.6-134.2,33.7c-41.5,6.4-81.5,16.5-121.9,27.5c-34.8,9.5-69.7,19.1-104.1,30c-33.8,10.6-67.4,22.3-99.8,36.7
					c-27.1,12-54.1,25.9-77,45.1c-8.9,7.5-17.1,15.8-23.8,25.4C14.5-94.5,15.8-93.7,16.3-94.5L16.3-94.5z"/>
			</g>
		</g>
		<g>
			<g>
				<path class="st29" d="M21.7-89.3c17.6-23,43.1-39.1,68.3-52.5c31.7-16.9,65.3-30,99.2-41.9c34.5-12.1,69.6-22.7,104.7-32.8
					c35.1-10.1,70.2-21.1,105.9-28.9c44.5-9.8,90.1-13.5,134.2-25.1c41.7-10.9,80.8-29.4,117.7-51.6c16.6-10,32.2-21.9,49-31.7
					c11.3-6.6,24.3-10.3,37-13.1c31.2-6.8,63.4-8.4,95.1-11.8c25.5-2.7,53-5.1,76.4-16.3c11.4-5.4,19-13.5,26.7-23.4
					c12.1-15.6,23-32.1,38.3-44.9c34.2-28.3,79.2-39.7,115.1-65.7c30.6-22.2,56.2-51,90.1-68.6c18.6-9.7,38.4-15.8,56.3-26.9
					c15.1-9.3,28.9-20.3,42.3-31.9c31.4-27.1,61.3-54.1,97.4-75.1c78.6-45.6,150.7-102.2,221.4-158.9
					c54.3-43.5,110.4-84.6,165.2-127.4c55.8-43.6,112.5-88.1,160.7-140.3c8.5-9.2,16.7-18.7,24.2-28.7c0.6-0.8-0.7-1.5-1.3-0.8
					c-40.2,53.2-94.3,96.4-145.8,137.9c-56.5,45.5-114.9,88.6-172.3,133.1c-69.7,54.1-137.7,110.3-211.8,158.4
					c-34.5,22.4-70.4,41.4-101.9,68.2c-29.6,25.2-57.2,53.2-91.9,71.5c-17.7,9.3-36.9,15.1-54.1,25.5c-15.3,9.3-29,20.8-42.5,32.5
					c-15.6,13.5-31.3,27-48.7,38.2c-18.6,12.1-38.7,20.7-58.5,30.5c-18.2,9-36.6,18.8-51.4,32.9c-14.1,13.4-24.2,30-36.6,44.9
					c-17.4,21-44.1,26.4-70,30.3c-31.6,4.8-63.6,6.2-95.2,10.5c-26.5,3.6-52.1,8.8-74.5,24.1c-35.9,24.5-73.4,47-113.9,63
					c-42.8,16.9-87.5,23.4-132.6,30.8c-39.9,6.5-78.4,16.9-117.2,27.8c-34.5,9.7-69,19.6-103.2,30.6
					c-33.9,10.9-67.6,22.8-100.2,37.2c-27.7,12.2-55.2,26.2-78.9,45.3c-9,7.2-17.2,15.2-24.2,24.3C19.8-89.3,21.1-88.6,21.7-89.3
					L21.7-89.3z"/>
			</g>
		</g>
		<g>
			<g>
				<path class="st29" d="M27-84c18.1-21.6,42.7-37,67.3-50.2c31.1-16.6,64-29.8,97.1-41.7c34.4-12.4,69.3-23.4,104.3-33.8
					c34.9-10.4,69.9-21.5,105.3-30c44-10.6,89.1-14.8,133.1-25.2c42-9.9,81.8-26.5,119.7-46.9c29.9-16.1,57.1-37.9,90.6-45.7
					c30.4-7.1,62-8.8,93-11.7c27.6-2.6,57-4.7,82.9-15.4c28.7-11.8,42.8-41.8,65.6-61.2c33.6-28.7,78.6-39.5,114.7-64.5
					c32.4-22.4,58.5-53.1,92.7-72.9c17.3-10,36.1-16.8,52.8-27.9c14.9-9.8,28.4-21.4,41.5-33.5c29.7-27.5,57.7-55.6,92.3-77.2
					c77.4-48.3,149.4-105,220.7-161.6c55.4-43.9,112.6-85.5,168.5-128.8c55.3-42.9,111.3-86.7,159.1-138.1
					c8.7-9.4,17.1-19.2,24.9-29.4c0.6-0.8-0.7-1.5-1.3-0.8c-39.8,52.6-93.1,95.3-144.2,136.2c-57.8,46.3-117.6,89.9-176.3,135.1
					c-69.6,53.5-137.4,109.2-210,158.6c-33.3,22.6-67.5,42.6-97.4,69.8c-28.2,25.7-54.1,54.2-87.1,73.9
					c-17.8,10.6-37.3,17.4-54.6,28.9c-14.6,9.7-27.8,21.4-41,33c-15.6,13.8-31.4,27.3-49,38.5c-19.3,12.4-40.4,21.2-61,31.3
					c-18.1,8.9-36.1,18.7-50.9,32.6c-13.5,12.6-23.9,27.9-36.9,41c-19.7,20-50.1,24.3-76.8,27.8c-30.9,4-62.2,5.4-93.1,9.7
					c-13.7,1.9-27.3,4.2-40.6,8.2c-13.1,3.9-24,10.2-35.6,17.3c-36.5,22.4-74.2,43-114.5,57.8c-43.3,15.9-88.3,22-133.5,29.9
					c-39.5,6.9-77.7,17.7-116.1,28.8c-34.4,10-68.8,20.2-102.9,31.4c-61.3,20.2-127.1,42.4-179,82C42-101.7,33.4-94,26-85
					C25.4-84.3,26.4-83.2,27-84L27-84z"/>
			</g>
		</g>
		<g>
			<g>
				<path class="st29" d="M32.5-78.8c18.8-20.7,43.3-35.6,67.8-48.5c31.7-16.7,65.1-30.2,98.8-42.6c34.5-12.6,69.5-23.9,104.6-34.7
					c35-10.7,70.2-22.1,105.8-30.9c43.5-10.8,88.2-15.5,131.9-25.5c41.8-9.5,81.8-25,120.2-43.9c30.6-15.1,59.3-36,92.9-43.9
					c31.1-7.3,63.3-8.9,95.1-11.7c27.9-2.5,57.3-4.6,83.8-14.5c29.3-10.9,45.5-38.7,69.3-57.5c34.5-27.2,78.7-38,114.7-63
					c32.5-22.6,58.4-53.4,92-74.4c17-10.7,35.4-18.5,51.6-30.6c14.2-10.6,27.1-22.8,39.6-35.3c29.3-29.4,57.3-58,91.9-81.4
					c74.2-50.4,144.7-106.2,215.3-161.6c55.9-43.9,113.6-85.3,170-128.7c54.4-41.9,109.4-84.9,156.4-135.3
					c8.9-9.6,17.4-19.5,25.3-29.9c0.6-0.8-0.7-1.5-1.3-0.8c-39.7,52.4-92.8,94.9-143.9,135.5c-57.5,45.8-117.1,88.8-175.5,133.3
					c-69.1,52.6-136.4,107.5-207,158.1c-32.5,23.4-66.3,44.3-95.2,72.2c-27.7,26.7-52.6,56.8-84.8,78.5
					c-16.8,11.3-35.6,19-52.2,30.6c-14.7,10.3-27.9,22.4-41.2,34.3c-15.6,14.1-31.6,27.8-49.4,39.2c-18.2,11.7-37.9,20.1-57.4,29.3
					c-18.4,8.6-36.8,17.8-52.5,30.8c-14.7,12.1-26.4,27.2-40.6,39.9c-21.3,19-51.8,23.2-79.1,26.5c-31.7,3.9-63.7,5.2-95.3,9.5
					c-13.6,1.8-27.2,4.2-40.4,8c-13.4,4-25,10.4-37.1,17.2c-37.8,21-76.6,40.4-117.6,54.4c-42.7,14.5-86.8,20.6-130.9,28.6
					c-39.5,7.2-77.7,18.2-116.2,29.7c-34.5,10.3-69,20.8-103.2,32.3c-61.8,20.8-127.3,43.4-180.5,82.1c-9.6,7-18.6,14.6-26.6,23.4
					C30.7-79.1,31.8-78.1,32.5-78.8L32.5-78.8z"/>
			</g>
		</g>
		<g>
			<g>
				<path class="st29" d="M37.9-73.6c20.1-20.3,45.3-35.1,70.5-48.1c31.7-16.3,64.8-29.8,98.2-42.3c34.6-12.9,69.6-24.5,104.8-35.6
					c34.9-11,69.9-22.5,105.4-31.6c41.6-10.7,84.1-15.9,126.1-24.8c42.4-9,83.3-23.2,122.8-40.9c18.8-8.4,37.4-17.5,55.8-26.8
					c13.5-6.8,26.5-12.6,41.2-16.1c31.3-7.5,63.8-9.1,95.7-11.8c29.1-2.5,59.5-4.5,87.4-13.9c30-10.1,48.3-35.8,73.2-53.8
					c34.4-25,76.9-35.7,112.1-59.5c33.2-22.5,59.1-53.8,92-76.7c15.5-10.7,32.3-18.9,47.1-30.6c14.8-11.7,28-25.2,40.8-39
					c27.9-30.3,54.7-59.7,88.2-84.2c71.4-52.1,140.8-107.1,210.6-161.4c56.7-44.2,115.3-85.8,172.4-129.4
					c55-41.9,110.6-85,157.8-135.8c8.9-9.5,17.3-19.4,25.2-29.8c0.6-0.8-0.7-1.5-1.3-0.8c-39.9,52.5-93.2,95.1-144.6,135.7
					c-57.8,45.6-117.8,88.5-176.6,132.9c-69,52-136.2,106.4-205.2,158.3c-32,24.1-64.8,46.4-92.7,75.4
					c-26.3,27.3-49.7,57.7-80.3,80.6c-16.4,12.3-35,21-51.4,33.5c-14.8,11.3-28.2,24.4-42,36.9c-15.6,14.3-31.9,27.8-50,39
					c-17.8,11-37.1,19-56,27.8c-18.2,8.5-36.4,17.4-52.3,29.9c-15.4,12-28.3,27.1-44.3,38.3c-22.8,16-53.8,19.4-80.7,22.3
					c-31.3,3.5-62.9,4.8-94.1,9c-14.5,1.9-29.1,4.4-43.1,8.8c-14.1,4.4-26.8,11.6-39.9,18.1c-38.7,19.3-78.2,37.2-119.6,50
					c-42.2,13-85.7,18.8-128.9,27.1c-38.6,7.5-76,18.7-113.5,30.2c-34.7,10.6-69.2,21.5-103.5,33.3C183.2-158,118.1-134.9,63.8-97
					c-9.6,6.7-18.8,14-27,22.4C36.1-74,37.2-72.9,37.9-73.6L37.9-73.6z"/>
			</g>
		</g>
		<g>
			<g>
				<path class="st29" d="M43.3-68.4c20.6-19.1,45.5-33.4,70.4-46.2c31.6-16.2,64.5-29.8,97.7-42.4c67.6-25.7,137-48.9,206.7-68.2
					c41.6-11.5,84.2-17.5,126.4-26c43.5-8.7,85.6-21.9,126.7-38.6c18-7.3,35.7-15.1,53.3-23.1c15-6.8,29.6-13.8,45.6-17.8
					c31.7-7.9,64.8-9.6,97.2-12.2c29.9-2.4,60.7-4.3,89.7-12.8c31.8-9.3,52.8-33.6,79.8-51.3c36.2-23.6,79-34.5,114.4-59.5
					c33.1-23.3,58.8-55.2,91.6-78.8c15.2-10.9,30.9-20.3,44.8-33c13.7-12.5,25.9-26.5,37.9-40.7c25.5-30.1,50.7-58.8,81.9-83.3
					c70.1-55,140-110.4,210.6-164.8c56.4-43.4,114.6-84.4,171.3-127.3c54.7-41.4,110-84.1,156.9-134.5c8.8-9.5,17.2-19.3,25-29.6
					c0.6-0.8-0.7-1.5-1.3-0.8c-40.1,52.7-93.6,95.3-145.3,135.8c-58.2,45.6-118.5,88.2-177.7,132.5
					c-67.3,50.3-132.9,102.9-198.9,154.9c-31.2,24.6-63.5,47.9-90.4,77.4c-25.3,27.7-47.2,58.6-75.6,83.4
					c-14.6,12.8-31.5,22.1-46.8,33.9c-15.5,12-29.4,25.8-43.7,39.2c-15.8,14.9-32.2,29.2-50.6,40.9c-18.5,11.8-38.6,20.2-58.5,29.2
					c-19.5,8.8-38.8,17.9-56,30.6c-14.9,10.9-28.2,24.1-44.1,33.6c-24.8,14.8-56.2,18-84.3,20.9c-32,3.3-64.2,4.6-96,8.9
					c-14.9,2-29.8,4.7-44.2,9.3c-14.8,4.8-28.8,12.2-43,18.6c-39.5,17.7-79.6,34.1-121.4,45.9c-41.9,11.8-85.1,17.3-127.6,26.2
					c-38.1,7.9-75.2,19.5-112.3,31.2c-34.6,10.9-69.1,22.1-103.3,34.2c-61.9,21.9-126.1,45.3-180.9,82.1
					c-9.6,6.4-18.7,13.4-27.2,21.2C41.5-68.8,42.6-67.7,43.3-68.4L43.3-68.4z"/>
			</g>
		</g>
		<g>
			<g>
				<path class="st29" d="M48.7-63.2c21.9-18.7,47.5-32.9,73.1-45.7c32-16,65.1-29.7,98.5-42.6c68.5-26.3,138.8-50.7,209.5-70.4
					c41.2-11.5,83.3-17.8,125.1-26.2c42.6-8.5,84.1-20.9,124.8-36.1c18.8-7,37.4-14.5,56-22.1c15.4-6.3,30.5-12.8,46.8-16.6
					c31.9-7.4,65-9.1,97.6-11.6c30.9-2.4,62.6-4.4,92.5-12.8c32.1-9,55.5-32.1,83.9-48.4c36.6-21,77.9-32.2,112.5-57
					c31.9-22.9,56.7-53.6,87.2-78.1c14.8-11.9,30.2-22.2,43.7-35.8c13.1-13.2,24.7-27.6,36.2-42.2c23.8-30.4,47.4-59.8,77.1-84.8
					c67.1-56.6,135.9-111.1,205.6-164.5c57.6-44.1,117.2-85.6,175.3-129.2c55-41.2,110.5-83.7,157.6-134.2
					c9-9.7,17.7-19.8,25.7-30.3c0.6-0.8-0.7-1.5-1.3-0.8c-40.3,52.8-94,95.5-146.1,136c-58.9,45.7-120.1,88.5-179.9,132.9
					c-67.1,49.9-132.7,101.9-197.3,155.1c-30.1,24.8-60.7,48.9-86,78.8c-23.9,28.2-44.4,59.3-71,85.1
					c-14.1,13.7-30.6,24.2-45.5,36.8c-14.5,12.2-27.7,25.9-41.3,39.1c-15.1,14.6-30.9,28.6-48.5,40.2
					c-18.1,11.9-37.7,20.5-57.5,29.1c-19.5,8.5-39.1,17-57.1,28.5c-15.4,9.9-29.6,21.7-45.5,30.8c-26.9,15.2-59.7,18.6-89.8,21.5
					c-32.8,3.2-65.7,4.5-98.3,8.9c-14.2,1.9-28.5,4.4-42.3,8.6c-17,5.1-33.2,12.9-49.6,19.5c-38.5,15.5-77.5,30-117.6,40.8
					c-42.2,11.4-85.5,17-128.2,26.2c-37.7,8.1-74.3,19.8-110.9,31.6c-35.1,11.3-70.2,23-104.9,35.6
					c-62.3,22.5-126.4,46.4-182.4,82.2c-9.9,6.3-19.5,13.2-28.5,20.8C46.9-63.6,48-62.6,48.7-63.2L48.7-63.2z"/>
			</g>
		</g>
		<g>
			<g>
				<path class="st29" d="M54.1-58c49.8-39.2,112.4-63.5,170.9-86.4c68-26.6,137.6-51.1,207.7-71.7c40.7-12,82.1-19.1,123.7-27.1
					c43.1-8.3,85.4-19.7,127-33.7c19.7-6.6,39.2-13.7,58.7-20.8c15.9-5.9,31.7-12.3,48.3-16.2c33.1-7.8,67.4-9.5,101.1-12.1
					c31.9-2.4,64.5-4.4,95.6-12.5c33.7-8.8,60.1-31,90.9-46.3c38.2-19,79-31.1,113.3-57.3c30.8-23.5,54.8-54.2,84.3-79.1
					c14.5-12.3,28.5-24.1,41-38.5c11.4-13.2,21.7-27.2,31.8-41.3c23.1-32,46.6-62.1,76.1-88.6c63.3-57,130.2-110,198-161.6
					c57.9-44,117.7-85.2,176-128.5c55.3-41.1,111-83.4,158.3-133.8c9.3-9.9,18.2-20.2,26.4-31c0.6-0.8-0.7-1.5-1.3-0.8
					c-41,53.8-95.9,97-149.2,138c-58.2,44.7-118.6,86.5-177.8,130c-66.1,48.7-130.9,99.6-193.3,153.1
					c-29.1,24.9-58.6,49.7-82.7,79.6c-23.3,28.9-42.7,60.8-67.6,88.5c-12.8,14.3-27.7,25.7-42,38.3c-14.6,12.9-27.8,27.1-41.5,40.9
					c-15,15.1-30.8,29.6-48.5,41.6c-17.4,11.8-36.5,20.5-55.8,28.8c-19.9,8.5-40.1,16.5-59,27.2c-16.8,9.5-32.5,20.8-49.8,29.3
					c-28.2,13.8-61.1,17.2-92,20c-33.6,3.1-67.3,4.5-100.8,8.9c-34,4.6-64.4,16.1-96.4,27.8c-40.3,14.6-81,28.3-122.6,38.5
					c-41.4,10.1-83.8,15.8-125.3,25.3c-72.3,16.7-143.3,42.7-212.9,68.4c-62.2,22.9-125.5,47.2-182.3,81.8
					c-10.2,6.2-20.1,12.9-29.6,20.3C52.3-58.5,53.4-57.4,54.1-58L54.1-58z"/>
			</g>
		</g>
		<g>
			<g>
				<path class="st29" d="M59.4-52.7c51.1-37,112-61.4,170.2-84.6c66.9-26.6,135-50.9,203.7-72.4c39.1-12.2,78.7-20.3,118.9-27.8
					c43.6-8.2,86.7-18.3,129.2-31c37.9-11.4,75.2-26.4,113.6-36c33.7-8.4,68.8-10.4,103.3-12.9c32.6-2.4,65.5-4.3,97.5-11.1
					c33.9-7.2,61.7-25.2,92.6-40c38-18.2,79.1-29.6,113.6-54.5c31.5-22.8,55.5-53.2,83.2-80.2c13.7-13.4,27.9-25.8,40.1-40.7
					c11.2-13.7,21.2-28.4,31-43.1c21.8-32.6,43.6-64.4,71.8-91.9c60.3-58.8,126.6-111.4,193.7-162.2
					c59.6-45.1,121.2-87.2,181.4-131.4c55.6-40.9,111.6-83.1,159-133.5c9.6-10.2,18.7-20.7,27.1-31.8c0.6-0.8-0.7-1.5-1.3-0.8
					c-41.6,54.4-97.2,98-151.3,139.2c-59,44.9-120.3,86.7-180.1,130.5c-65.9,48.3-130.6,98.8-191.4,153.3
					c-27.5,24.6-54.7,49.7-76.8,79.3c-22.9,30.6-41.7,64.2-66.1,93.6c-12.3,14.8-26.8,27.1-40.5,40.6c-13.7,13.6-26.5,28.2-40,42
					c-14.5,14.8-29.9,28.7-47.1,40.2c-17.9,12-37.4,20.6-57.2,28.8c-18.8,7.8-37.9,15.1-56.1,24.2c-18.1,9.1-35.5,20-54.4,27.5
					c-29.8,11.9-62.9,14.9-94.6,17.7c-33.6,2.9-67.4,4.3-100.9,8.8c-35.8,4.8-68.9,16.8-103.1,27.9c-40.7,13.2-81.8,25.7-123.6,35.1
					c-40.5,9.2-81.7,14.9-122,24.7c-71.5,17.4-141.6,43.6-210.3,69.5c-62.1,23.4-124.9,48.1-182.6,81.4C79.2-67.9,68.7-61.3,58.7-54
					C57.9-53.4,58.6-52.1,59.4-52.7L59.4-52.7z"/>
			</g>
		</g>
		<g>
			<g>
				<path class="st29" d="M64.8-47.5c52.6-35,112.5-59.6,170.8-83.1c67-27.1,135.2-52,204.1-74.1c38.6-12.4,77.7-21.1,117.4-28.5
					c44-8.2,87.5-17.8,130.6-29.6c38.5-10.5,76.5-23.6,115.2-32.9c34.7-8.4,70.8-10.6,106.3-13.2c34.1-2.5,68.6-4.4,102.2-11.1
					c36.3-7.2,67.7-24.8,101.7-38.6c37.1-15.1,75.6-27.3,108.1-51.6c30.1-22.5,53-51.9,78.4-79.2c12.3-13.2,25-25.8,35.9-40.3
					c10.9-14.6,20.7-30,30.2-45.5c20.5-33.3,40.9-66.1,68-94.6c57.5-60.5,123.5-113,190.1-163.1c60.2-45.4,122.7-87.6,183.7-131.9
					c56.3-40.9,112.9-83.3,160.7-134.1c9.5-10.1,18.6-20.6,27-31.6c0.6-0.8-0.7-1.5-1.3-0.8c-41.8,54.6-97.6,98.3-152.2,139.4
					c-59.5,44.8-121.3,86.5-181.5,130.3c-66,48-130.9,98.3-190.4,154.1c-26.9,25.2-52.7,51.4-73.7,81.8
					c-20.9,30.3-38,63.1-59.9,92.8c-11.7,15.8-25.3,29.3-38.6,43.7c-12.8,13.8-24.8,28.2-37.6,41.9c-14.5,15.4-30,29.8-47.5,41.7
					c-17.5,11.9-36.7,20.7-56.3,28.6c-18.3,7.4-36.9,14-55,21.9c-18.5,8.1-36.4,17.5-55.4,24.3c-32.2,11.7-67.1,14.9-101.1,17.7
					c-34.5,2.8-69.2,4.4-103.6,8.9c-36.2,4.8-70.5,16-105.4,26.1c-41.6,12.1-83.3,23.6-125.7,32.7c-40.7,8.7-81.9,14.8-122.2,25.1
					c-71.1,18.2-140.7,44.7-209.1,70.9c-62,23.8-124.2,48.9-182.4,80.9c-11,6.1-21.9,12.5-32.4,19.5C63.3-48.3,64-47,64.8-47.5
					L64.8-47.5z"/>
			</g>
		</g>
		<g>
			<g>
				<path class="st29" d="M70.3-42.3c53.5-32.7,112.1-57.4,170-81.1c66.5-27.3,134-52.5,202.2-75.2c80.2-26.7,164.3-37.4,246.2-57.5
					c40.6-10,80.9-21.6,121.7-31c35.5-8.2,72.1-10.7,108.4-13.3c35.1-2.5,70.3-4.5,105-10.4c37.9-6.4,72.2-21.8,108-34.9
					c36.8-13.5,74.3-25.8,106-49.5c30-22.4,52.6-52,76.6-80.4c11.4-13.5,23-26.6,33-41.3c10.5-15.4,19.8-31.5,28.9-47.7
					c19.2-34,38.4-67.7,64.4-97.1C1495-723.2,1559.7-775,1625-824c60.8-45.7,124.1-88,185.9-132.4c57.4-41.3,115.2-84.1,163.8-135.8
					c9.4-10.1,18.4-20.5,26.8-31.5c0.6-0.8-0.7-1.5-1.3-0.8c-42.4,55.3-99,99.3-154.5,140.6c-60.4,45-123.2,86.8-184.2,131
					c-64.9,47-129,96.3-186.2,152.6c-25.5,25.1-49.5,51.4-68.9,81.5c-20.4,31.6-36.7,65.7-57.5,97c-11.2,16.9-24.5,31.9-37.6,47.4
					c-11.7,13.9-23,28.2-35.3,41.7c-28.6,31.4-61.7,53.7-101.2,69.3c-19.5,7.7-39.4,14.3-58.9,21.9c-18.8,7.3-37.4,15.3-56.8,21
					c-34.1,10.1-70.1,13.1-105.4,15.8c-35.6,2.7-71.2,4.5-106.6,9.3c-37.1,5-73.2,15.8-109.4,25.1c-41.8,10.8-83.8,21.2-126.1,29.8
					c-39.6,8-79.6,14.3-118.6,24.8c-71.3,19.1-141,46.2-209.6,73.1c-61.6,24.2-123.2,49.5-181.7,80.5C90.8-56.1,80-50.1,69.5-43.6
					C68.7-43.1,69.4-41.8,70.3-42.3L70.3-42.3z"/>
			</g>
		</g>
		<g>
			<g>
				<path class="st29" d="M75.7-37.1c55.1-30.9,113.7-56,172-80.2c65.8-27.3,132.4-52.9,199.8-75.9c78.8-26.9,160.8-38.6,241.8-56.5
					c41.5-9.2,82.9-19.1,124.4-28.1c37.1-8.1,74.9-11.3,112.7-14c36.6-2.7,73.3-4.7,109.6-9.9c38.5-5.5,74.5-17.8,111.2-29.9
					c37.4-12.3,75.4-24.7,107.2-48.7c29-21.8,51-50.5,72.9-79.1c11.4-14.9,22.8-29.5,32.6-45.5c9.8-16,18.5-32.6,27.1-49.3
					c18-34.7,36-69.2,60.8-99.6c51-62.5,115.1-114,179.4-162.1c61.5-46.1,125.7-88.4,188.3-133c57.8-41.1,115.9-83.8,164.7-135.5
					c9.6-10.2,18.8-20.9,27.4-32c0.6-0.8-0.7-1.5-1.3-0.8c-42.6,55.5-99.5,99.7-155.5,140.9c-61,45-124.4,86.7-186,131
					c-64.8,46.6-129,95.7-184.7,153.2c-24.9,25.7-47.6,53.2-65.8,84.1c-18.9,32.1-34.1,66.3-53.3,98.3c-19.4,32.5-44,63.7-69,92.1
					c-28.3,32-62,54.4-101.8,69.6c-19.5,7.4-39.5,13.6-59.3,20.3c-18.9,6.3-37.7,12.9-57.1,17.5c-36.4,8.8-74.1,11.7-111.3,14.4
					c-36.2,2.7-72.6,4.7-108.6,9.5c-38.6,5.2-76.6,15.2-114.5,23.9c-42.6,9.7-85.2,19.3-128.1,27.6c-38.4,7.5-76.9,14.1-114.6,24.8
					c-70.4,19.9-139.2,47-207.1,74.2C228.1-111.5,167-85.7,108-56c-11.2,5.6-22.2,11.4-33.1,17.6C74.1-37.9,74.8-36.6,75.7-37.1
					L75.7-37.1z"/>
			</g>
		</g>
		<g>
			<g>
				<path class="st29" d="M81.1-31.9c56.7-29.1,115.2-54.7,174-79.3c66.5-27.9,133.6-54.5,201.8-78c78.8-27.2,160.5-39.8,242-56.2
					c41.7-8.4,83.3-17,125.1-24.9c39-7.3,78.4-10.7,117.9-13.5c39.5-2.8,79.1-5.1,118.3-10.5c38.9-5.3,76.5-15.6,114-26.9
					c36.4-11,72.1-24.4,102-48.5c28.2-22.7,49.3-52.1,69.7-81.6c21.2-30.8,37.8-63.3,53.7-97c16-33.9,32.5-67.6,55.2-97.6
					c47.8-63.2,110.8-114.3,173.8-161.5c62.4-46.7,127.7-89.3,191.4-134.2c58.1-40.9,116.6-83.5,165.6-135.3
					c9.9-10.4,19.2-21.3,27.9-32.6c0.6-0.8-0.7-1.5-1.3-0.8c-42.9,55.8-100.1,100-156.6,141.3c-61.6,45.1-125.7,86.7-187.8,131
					c-63.8,45.6-127.2,93.8-180.7,151.3c-23.7,25.4-44.8,52.8-61.7,83.3c-18.5,33.4-32.9,68.8-50.8,102.5
					c-17.1,32.3-38.4,63.4-61.5,91.7c-26,31.9-57.8,56.2-96,71.6c-37.8,15.2-78.5,26.5-118.4,35.1c-38.5,8.3-78.1,11.4-117.3,14.3
					c-39.2,2.9-78.4,5.1-117.4,10c-38.4,4.9-76.4,13.2-114.3,20.9c-43.2,8.7-86.4,17.5-129.7,25.8c-38.6,7.4-77.2,14.3-115,25.3
					c-70.7,20.5-139.6,48.2-207.7,75.9C235.7-105.3,174.5-79,114.6-50.2c-11.5,5.5-22.9,11.2-34.2,17C79.5-32.8,80.3-31.5,81.1-31.9
					L81.1-31.9z"/>
			</g>
		</g>
		<g>
			<g>
				<path class="st29" d="M86.5-26.7C209.2-84.4,334.3-138.8,462.2-184c36.8-13,74.1-24.6,112.4-32.2c43.2-8.6,86.6-16.5,130-24.5
					c41.8-7.7,83.7-15.1,125.8-21.8c41.7-6.6,83.5-10.4,125.6-13.4c80.5-5.8,160.4-10.9,238.5-32.6c36.3-10.1,71.4-24.1,100.6-48.5
					c27.3-22.8,47.6-52.1,66-82.2c39.5-64.4,58.4-139.5,102.2-201.3c45.4-64.1,108.3-115,170.8-161.5
					c62.5-46.6,128.2-88.7,192.1-133.3c58-40.5,116.3-82.7,165.2-134.3c10-10.5,19.4-21.5,28.3-33c0.6-0.8-0.7-1.5-1.3-0.8
					c-43.2,56.1-100.7,100.4-157.6,141.7c-61.4,44.5-125.3,85.5-187.2,129.3c-63.1,44.5-125.9,92.1-177.8,149.5
					c-23.7,26.2-44.2,54.7-60.5,86.1c-17.5,33.8-30.8,69.4-46.8,103.8c-32.1,69-76.8,137.7-149.5,168
					c-76.6,31.9-161.7,39.1-243.6,44.9c-40.7,2.9-81.5,5.4-122.1,10.2c-39.8,4.7-79.3,11.8-118.7,18.8
					c-43.2,7.6-86.3,15.6-129.4,23.7c-38.7,7.3-77.2,14.7-115,26.1C439.7-180,371.2-152,303.3-123.9C242-98.5,181.2-72,120.9-44.3
					C109.2-39,97.5-33.5,85.8-28C84.9-27.6,85.7-26.3,86.5-26.7L86.5-26.7z"/>
			</g>
		</g>
		<g>
			<g>
				<path class="st29" d="M92-21.5c125.6-53.9,249.6-111.9,378.3-158c36.3-13,73.1-24.9,110.9-32.7c41.9-8.6,84-16.1,126.2-23.1
					c85.4-14.2,170.9-25.7,257.2-32c83.3-6.1,169.1-7,250.3-28.1c35.9-9.3,70.4-23.9,98.7-48.4c26.2-22.7,45.6-51.7,62-82
					c36.7-67.5,53.2-144.7,96-209.1c42.6-64.1,104.2-114.4,165.4-159.9c63-46.8,129.3-88.9,193.8-133.5
					c58.4-40.3,117.1-82.4,166.1-134c10.1-10.7,19.7-21.8,28.7-33.4c0.6-0.8-0.7-1.5-1.3-0.8c-43.5,56.4-101.3,100.8-158.7,142
					C1803-909.5,1737.9-868.3,1675-824c-61.9,43.6-123.8,90.2-173.6,147.8c-22.8,26.4-42,55.2-57,86.8c-16.3,34.2-28.7,70-43,105
					c-29,70.9-68.9,141.1-142.4,172.6c-39.7,17-83.5,24.6-126.2,29.6c-41.6,4.9-83.6,7.4-125.4,10.2c-83.9,5.8-167.1,14.2-250.3,27
					c-79.6,12.3-161.1,23.5-238.3,47.4c-70.3,21.8-138.7,50.1-206.5,78.7c-62,26.1-123.5,53.4-185.1,80.3c-12,5.2-24,10.5-36,15.6
					C90.3-22.5,91.1-21.2,92-21.5L92-21.5z"/>
			</g>
		</g>
		<g>
			<g>
				<path class="st29" d="M97.2-16.3c133.4-52,261.4-117,396.6-164.4c75.4-26.5,153.3-40.5,232.2-52c100.6-14.7,202-23.5,303.5-30.2
					c48-3.2,96.3-4.5,144.2-9.4c41.1-4.2,82.8-12.1,119.7-31.6c67.1-35.5,98.5-105.3,122.8-173.5c13-36.4,24.7-73.4,40.7-108.8
					c13.6-30,30.7-57.6,51.8-82.9c44.3-53.3,100.1-96.5,156.3-136.5c59.8-42.6,121.9-81.8,182.3-123.5
					c55.4-38.2,110.7-78.4,157-127.5c9.6-10.2,18.8-20.9,27.4-32.1c0.6-0.8-0.7-1.5-1.3-0.8c-40.5,52.5-93.6,94.5-147,133.1
					c-59.3,42.8-121.1,81.9-181.4,123.2c-56.9,38.9-113.5,79.6-162.4,128.4c-21.7,21.6-41.9,45.1-58.6,70.8
					c-18.6,28.7-31.8,60.5-43.6,92.5c-25.6,69.5-44.4,147.7-98.3,201.9c-65.8,66.3-164.6,66.3-251.5,71.5
					c-99.9,5.9-199.9,13.1-299.3,25.4c-49.2,6.1-98.3,13.4-147.1,22.3c-35.4,6.5-70.5,13.5-104.9,24
					C398.2-154,268.1-88.7,135.3-33.3c-12.8,5.3-25.6,10.6-38.5,15.6C95.9-17.4,96.3-15.9,97.2-16.3L97.2-16.3z"/>
			</g>
		</g>
	</g>
</g>
<g class="st30">
	<path class="st29" d="M441.5,691L441.5,691c-7.5,0-13.5-6-13.5-13.5l0,0c0-7.5,6-13.5,13.5-13.5H455v13.5
		C455,685,449,691,441.5,691z"/>
	<path class="st29" d="M778.5,88L778.5,88C771,88,765,82,765,74.5v0c0-7.5,6-13.5,13.5-13.5H792v13.5C792,82,786,88,778.5,88z"/>
	<path class="st29" d="M987.5,741L987.5,741c-7.5,0-13.5-6-13.5-13.5l0,0c0-7.5,6-13.5,13.5-13.5h13.5v13.5
		C1001,735,995,741,987.5,741z"/>
	<path class="st29" d="M1029.5,432L1029.5,432c-7.5,0-13.5-6-13.5-13.5l0,0c0-7.5,6-13.5,13.5-13.5h13.5v13.5
		C1043,426,1037,432,1029.5,432z"/>
	<path class="st29" d="M1463.5,1068L1463.5,1068c-7.5,0-13.5-6-13.5-13.5l0,0c0-7.5,6-13.5,13.5-13.5h13.5v13.5
		C1477,1062,1471,1068,1463.5,1068z"/>
	<path class="st29" d="M657.5,446L657.5,446c-7.5,0-13.5-6-13.5-13.5l0,0c0-7.5,6-13.5,13.5-13.5H671v13.5
		C671,440,665,446,657.5,446z"/>
	<path class="st29" d="M289.5,307L289.5,307c-7.5,0-13.5-6-13.5-13.5l0,0c0-7.5,6-13.5,13.5-13.5H303v13.5
		C303,301,297,307,289.5,307z"/>
	<path class="st31" d="M98.5,800L98.5,800C91,800,85,794,85,786.5l0,0c0-7.5,6-13.5,13.5-13.5H112v13.5C112,794,106,800,98.5,800z"
		/>
	<path class="st31" d="M1021.5,131L1021.5,131c-7.5,0-13.5-6-13.5-13.5v0c0-7.5,6-13.5,13.5-13.5h13.5v13.5
		C1035,125,1029,131,1021.5,131z"/>
	<path class="st31" d="M1661.5,460L1661.5,460c-7.5,0-13.5-6-13.5-13.5l0,0c0-7.5,6-13.5,13.5-13.5h13.5v13.5
		C1675,454,1669,460,1661.5,460z"/>
	<path class="st31" d="M721.5,1047L721.5,1047c-7.5,0-13.5-6-13.5-13.5l0,0c0-7.5,6-13.5,13.5-13.5H735v13.5
		C735,1041,729,1047,721.5,1047z"/>
	<path class="st31" d="M1295.5,637L1295.5,637c-7.5,0-13.5-6-13.5-13.5l0,0c0-7.5,6-13.5,13.5-13.5h13.5v13.5
		C1309,631,1303,637,1295.5,637z"/>
	<path class="st31" d="M1463.5,159L1463.5,159c-7.5,0-13.5-6-13.5-13.5v0c0-7.5,6-13.5,13.5-13.5h13.5v13.5
		C1477,153,1471,159,1463.5,159z"/>
	<path class="st31" d="M201.5,132L201.5,132c-7.5,0-13.5-6-13.5-13.5v0c0-7.5,6-13.5,13.5-13.5H215v13.5C215,126,209,132,201.5,132z
		"/>
	<path class="st31" d="M813.5,367L813.5,367c-7.5,0-13.5-6-13.5-13.5l0,0c0-7.5,6-13.5,13.5-13.5H827v13.5
		C827,361,821,367,813.5,367z"/>
	<path class="st32" d="M181.5,953L181.5,953c-7.5,0-13.5-6-13.5-13.5l0,0c0-7.5,6-13.5,13.5-13.5H195v13.5
		C195,947,189,953,181.5,953z"/>
	<path class="st32" d="M1355.5,438L1355.5,438c-7.5,0-13.5-6-13.5-13.5l0,0c0-7.5,6-13.5,13.5-13.5h13.5v13.5
		C1369,432,1363,438,1355.5,438z"/>
	<path class="st32" d="M1816.5,967L1816.5,967c-7.5,0-13.5-6-13.5-13.5l0,0c0-7.5,6-13.5,13.5-13.5h13.5v13.5
		C1830,961,1824,967,1816.5,967z"/>
	<path class="st32" d="M125.5,473L125.5,473c-7.5,0-13.5-6-13.5-13.5l0,0c0-7.5,6-13.5,13.5-13.5H139v13.5
		C139,467,133,473,125.5,473z"/>
	<path class="st32" d="M1586.5,558L1586.5,558c-7.5,0-13.5-6-13.5-13.5l0,0c0-7.5,6-13.5,13.5-13.5h13.5v13.5
		C1600,552,1594,558,1586.5,558z"/>
	<path class="st32" d="M481.5,460L481.5,460c-7.5,0-13.5-6-13.5-13.5l0,0c0-7.5,6-13.5,13.5-13.5H495v13.5
		C495,454,489,460,481.5,460z"/>
	<path class="st32" d="M974.5,919L974.5,919c-7.5,0-13.5-6-13.5-13.5l0,0c0-7.5,6-13.5,13.5-13.5H988v13.5
		C988,913,982,919,974.5,919z"/>
	<path class="st33" d="M1202.5,250L1202.5,250c-7.5,0-13.5-6-13.5-13.5v0c0-7.5,6-13.5,13.5-13.5h13.5v13.5
		C1216,244,1210,250,1202.5,250z"/>
	<path class="st33" d="M1862.5,381L1862.5,381c-7.5,0-13.5-6-13.5-13.5l0,0c0-7.5,6-13.5,13.5-13.5h13.5v13.5
		C1876,375,1870,381,1862.5,381z"/>
	<path class="st33" d="M1322.5,856L1322.5,856c-7.5,0-13.5-6-13.5-13.5l0,0c0-7.5,6-13.5,13.5-13.5h13.5v13.5
		C1336,850,1330,856,1322.5,856z"/>
	<path class="st33" d="M1719.5,786L1719.5,786c-7.5,0-13.5-6-13.5-13.5l0,0c0-7.5,6-13.5,13.5-13.5h13.5v13.5
		C1733,780,1727,786,1719.5,786z"/>
	<path class="st33" d="M60.5,253L60.5,253C53,253,47,247,47,239.5v0c0-7.5,6-13.5,13.5-13.5H74v13.5C74,247,68,253,60.5,253z"/>
	<path class="st33" d="M542.5,125L542.5,125c-7.5,0-13.5-6-13.5-13.5v0c0-7.5,6-13.5,13.5-13.5H556v13.5C556,119,550,125,542.5,125z
		"/>
</g>
</svg>
